<?xml version="1.0" standalone="no"?>
<!DOCTYPE svg PUBLIC "-//W3C//DTD SVG 1.1//EN" "http://www.w3.org/Graphics/SVG/1.1/DTD/svg11.dtd" >
<svg xmlns="http://www.w3.org/2000/svg" xmlns:xlink="http://www.w3.org/1999/xlink" version="1.1">
<metadata></metadata>
<defs>
<font id="baxter_sans_mediumbold" horiz-adv-x="1157" >
<font-face units-per-em="2048" ascent="1559" descent="-489" />
<missing-glyph horiz-adv-x="413" />
<glyph horiz-adv-x="0" />
<glyph horiz-adv-x="682" />
<glyph unicode="&#xd;" horiz-adv-x="1228" />
<glyph unicode=" "  horiz-adv-x="413" />
<glyph unicode="&#x09;" horiz-adv-x="413" />
<glyph unicode="&#xa0;" horiz-adv-x="413" />
<glyph unicode="!" horiz-adv-x="538" d="M115 137q0 67 41.5 111.5t113.5 44.5q73 0 115.5 -44.5t42.5 -111.5t-42.5 -112t-115.5 -45q-72 0 -113.5 45t-41.5 112zM143 1315h260l-18 -871h-221z" />
<glyph unicode="&#x22;" horiz-adv-x="681" d="M82 1360h207l-23 -471h-162zM387 1360h205l-23 -471h-159z" />
<glyph unicode="#" horiz-adv-x="1347" d="M47 297v240h221l66 241h-182v240h245l78 297h277l-78 -297h239l78 297h277l-78 -297h156v-240h-220l-63 -241h176v-240h-240l-77 -297h-279l78 297h-238l-77 -297h-279l78 297h-158zM547 537h237l66 241h-240z" />
<glyph unicode="$" horiz-adv-x="1120" d="M70 309l215 133q43 -100 109.5 -148t166.5 -48q84 0 138.5 40t54.5 103q0 68 -63 107.5t-222 89.5q-179 56 -268.5 142.5t-89.5 229.5q0 147 99.5 244.5t260.5 118.5l2 170h211l-2 -182q111 -28 192.5 -97.5t116.5 -169.5l-227 -108q-24 69 -83 113.5t-136 44.5 q-85 0 -128.5 -33.5t-43.5 -93.5q0 -29 13.5 -52.5t29.5 -38.5t56 -33t66 -27t86 -29l9 -3q91 -28 157 -59.5t119.5 -74.5t81 -100.5t27.5 -129.5q0 -153 -91 -256.5t-249 -134.5l-2 -168h-211l2 159q-278 30 -397 291z" />
<glyph unicode="%" horiz-adv-x="1460" d="M66 1085q0 129 89 220.5t216 91.5q130 0 221.5 -91.5t91.5 -220.5t-91 -218t-222 -89q-128 0 -216.5 89t-88.5 218zM207 8l889 1368h157l-888 -1368h-158zM225 1085q0 -61 43.5 -103t102.5 -42q63 0 106 42t43 103q0 63 -43 107.5t-106 44.5q-59 0 -102.5 -44.5 t-43.5 -107.5zM778 301q0 129 90.5 217t221.5 88q128 0 217.5 -88.5t89.5 -216.5q0 -130 -89.5 -221.5t-217.5 -91.5q-130 0 -221 91t-91 222zM938 301q0 -63 45 -107t107 -44q60 0 101.5 44t41.5 107q0 60 -41.5 101.5t-101.5 41.5q-62 0 -107 -41.5t-45 -101.5z" />
<glyph unicode="&#x26;" horiz-adv-x="1339" d="M61 387q0 252 310 367q-50 70 -74.5 128t-24.5 119q0 146 109.5 244t271.5 98q165 0 269 -81t104 -242q0 -118 -85.5 -197.5t-227.5 -124.5l227 -274q43 115 55 283h224q-17 -267 -132 -453q55 -47 150 -47l4 -225q-100 0 -176 23t-145 91q-152 -133 -359 -133 q-212 0 -356 119.5t-144 304.5zM319 403q0 -97 68.5 -159t181.5 -62q121 0 209 76l-305 365q-154 -61 -154 -220zM520 1014q0 -41 19 -83t65 -106q83 31 136 80.5t53 114.5q0 55 -39 92t-101 37q-57 0 -95 -40t-38 -95z" />
<glyph unicode="'" horiz-adv-x="387" d="M82 1360h211l-23 -471h-166z" />
<glyph unicode="(" horiz-adv-x="606" d="M139 649q0 241 52 455.5t167 437.5l203 -86q-99 -200 -143.5 -394t-44.5 -413t44.5 -413t143.5 -394l-203 -86q-115 223 -167 437.5t-52 455.5z" />
<glyph unicode=")" horiz-adv-x="606" d="M45 -158q99 200 143.5 394t44.5 413t-44.5 413t-143.5 394l203 86q115 -223 167 -437.5t52 -455.5t-52 -455.5t-167 -437.5z" />
<glyph unicode="*" horiz-adv-x="585" d="M12 1128l64 172l160 -71l-19 186h209l-16 -186l153 71l66 -167l-178 -46l127 -145l-168 -104l-88 145l-86 -145l-168 104l125 143z" />
<glyph unicode="+" horiz-adv-x="1193" d="M127 571v197h371v373h196v-373h373v-197h-373v-368h-196v368h-371z" />
<glyph unicode="," horiz-adv-x="528" d="M102 147q0 65 44.5 111.5t115.5 46.5t116.5 -49.5t45.5 -130.5q0 -60 -15 -115.5t-49.5 -113.5t-60 -93.5t-76.5 -99.5l-96 66q86 112 131 217q-69 1 -112.5 48t-43.5 113z" />
<glyph unicode="-" horiz-adv-x="681" d="M57 537v239h568v-239h-568z" />
<glyph unicode="." horiz-adv-x="526" d="M98 147q0 69 43.5 115.5t118.5 46.5t119.5 -46.5t44.5 -115.5q0 -70 -44 -116.5t-120 -46.5q-75 0 -118.5 46.5t-43.5 116.5z" />
<glyph unicode="/" horiz-adv-x="628" d="M0 0l348 1315h277l-346 -1315h-279z" />
<glyph unicode="0" horiz-adv-x="1304" d="M84 598q0 275 160 444.5t409 169.5q162 0 291 -75.5t203 -216t74 -322.5q0 -280 -160 -451.5t-408 -171.5q-249 0 -409 171t-160 452zM356 598q0 -182 79.5 -281.5t217.5 -99.5q136 0 216.5 100t80.5 281q0 178 -80.5 275.5t-216.5 97.5q-138 0 -217.5 -97t-79.5 -276z " />
<glyph unicode="1" horiz-adv-x="806" d="M78 936v235h534v-1171h-266v936h-268z" />
<glyph unicode="2" horiz-adv-x="1155" d="M90 0l2 57q3 68 27.5 127t63.5 102.5t89 81.5t105 69.5t109.5 62t104 62t87 65.5t60 78.5t22.5 95.5q0 85 -54 136.5t-143 51.5q-86 0 -143 -54t-70 -151l-235 50q23 176 145.5 276t310.5 100q202 0 325.5 -112t123.5 -295q0 -70 -20 -131t-53 -105t-77 -83t-91.5 -67 t-97.5 -55.5t-93 -49t-81 -48t-58 -51.5l610 12v-225h-969z" />
<glyph unicode="3" d="M72 168l243 80q23 -94 83 -137t159 -43q106 0 165.5 45t59.5 135q0 92 -77 139t-259 47v203q56 0 105 9.5t92 30t68.5 58.5t25.5 90q0 75 -52.5 116.5t-135.5 41.5q-68 0 -123 -38.5t-76 -115.5l-235 74q32 132 151 219.5t295 87.5q192 0 318.5 -97.5t126.5 -266.5 q0 -100 -54.5 -175t-148.5 -122q248 -83 248 -311q0 -128 -66 -219.5t-177.5 -136t-256.5 -44.5q-187 0 -317 86.5t-162 243.5z" />
<glyph unicode="4" horiz-adv-x="1159" d="M59 227l430 951h281l-387 -861h324v379h258v-379h163v-225h-163v-250h-258v250h-613z" />
<glyph unicode="5" horiz-adv-x="1124" d="M96 193l244 71q26 -101 81 -155t152 -54q105 0 163.5 67t58.5 185q0 114 -64.5 182t-165.5 68q-69 0 -123.5 -36t-81.5 -93l-219 61h2l-16 5l78 694h794v-225h-589l-23 -252q89 63 221 63q93 0 174.5 -29t145 -85.5t100.5 -146.5t37 -204q0 -212 -137.5 -341.5 t-349.5 -129.5q-198 0 -321.5 93t-160.5 262z" />
<glyph unicode="6" horiz-adv-x="1120" d="M74 614q0 350 139 538.5t391 188.5q164 0 275.5 -76.5t154.5 -193.5l-223 -113q-25 71 -83.5 113.5t-133.5 42.5q-117 0 -179 -84.5t-77 -259.5q111 99 272 96q199 -2 325 -115t126 -317q0 -206 -134 -331.5t-341 -125.5q-236 0 -374 163t-138 474zM354 420 q0 -92 58.5 -156.5t165.5 -64.5q98 0 160.5 62t62.5 159q0 107 -62 168t-164 61q-109 0 -165 -59.5t-56 -169.5z" />
<glyph unicode="7" horiz-adv-x="1044" d="M72 946v225h913v-192q-406 -558 -522 -1129h-264q127 604 491 1096h-618z" />
<glyph unicode="8" horiz-adv-x="1134" d="M66 377q0 113 54.5 193.5t160.5 123.5q-85 46 -131 118t-46 161q0 158 121.5 263t339.5 105q220 0 341.5 -105t121.5 -263q0 -89 -45.5 -161t-130.5 -116q217 -91 217 -319q0 -170 -143.5 -283.5t-360.5 -113.5q-215 0 -357 113.5t-142 283.5zM330 385q0 -83 58 -140 t177 -57q120 0 179 57t59 140q0 84 -58.5 139.5t-179.5 55.5q-120 0 -177.5 -55.5t-57.5 -139.5zM369 973q0 -70 49.5 -122t146.5 -52t148 52.5t51 121.5q0 76 -50 125t-149 49t-147.5 -49t-48.5 -125z" />
<glyph unicode="9" d="M96 756q0 206 134 331t341 125q236 0 374 -163t138 -474q0 -350 -139 -538.5t-391 -188.5q-164 0 -275.5 77t-154.5 194l223 112q25 -71 83.5 -113t133.5 -42q117 0 179 84.5t77 259.5q-111 -99 -272 -96q-199 2 -325 115t-126 317zM356 770q0 -107 62 -168t164 -61 q109 0 165 59.5t56 169.5q0 93 -58 157t-165 64q-98 0 -161 -62t-63 -159z" />
<glyph unicode=":" horiz-adv-x="659" d="M170 147q0 69 43.5 115.5t118.5 46.5t119.5 -46.5t44.5 -115.5q0 -70 -44 -116.5t-120 -46.5q-75 0 -118.5 46.5t-43.5 116.5zM170 821q0 69 43.5 115.5t118.5 46.5t119.5 -46.5t44.5 -115.5q0 -70 -44 -117t-120 -47q-75 0 -118.5 47t-43.5 117z" />
<glyph unicode=";" horiz-adv-x="659" d="M170 821q0 69 43.5 115.5t118.5 46.5t119.5 -46.5t44.5 -115.5q0 -70 -44 -117t-120 -47q-75 0 -118.5 47t-43.5 117zM174 147q0 65 44.5 111.5t115.5 46.5t116.5 -49.5t45.5 -130.5q0 -60 -15 -115.5t-49.5 -113.5t-60 -93.5t-76.5 -99.5l-96 66q86 112 131 217 q-69 1 -112.5 48t-43.5 113z" />
<glyph unicode="&#x3c;" horiz-adv-x="925" d="M102 500v235l631 301l76 -182l-520 -238l520 -239l-76 -180z" />
<glyph unicode="=" horiz-adv-x="1224" d="M143 393v182h938v-182h-938zM143 764v184h938v-184h-938z" />
<glyph unicode="&#x3e;" horiz-adv-x="925" d="M117 379l520 239l-520 238l76 182l630 -301v-235l-630 -303z" />
<glyph unicode="?" horiz-adv-x="1009" d="M51 973q20 166 140 266t303 100q193 0 319.5 -110t126.5 -291q0 -161 -91.5 -262t-246.5 -131v-121h-229v299h59q137 1 202.5 54.5t65.5 160.5q0 92 -59.5 143.5t-153.5 51.5q-185 0 -225 -220zM330 137q0 67 41.5 111.5t113.5 44.5q73 0 115.5 -44.5t42.5 -111.5 t-42.5 -112t-115.5 -45q-72 0 -113.5 45t-41.5 112z" />
<glyph unicode="@" horiz-adv-x="1882" d="M82 426q0 250 120.5 455t329.5 321.5t463 116.5q229 0 413.5 -95.5t288 -264.5t103.5 -379q0 -153 -58.5 -284t-159 -207.5t-218.5 -76.5q-94 0 -158.5 46t-85.5 122q-54 -69 -141.5 -110t-179.5 -41q-149 0 -245.5 109t-96.5 278q0 142 60 263t167 193t236 72 q77 0 141 -30.5t104 -84.5l15 99h192l-86 -615q-2 -10 -2 -37q0 -49 20.5 -70.5t65.5 -21.5q92 0 165 118t73 278q0 253 -172 414t-441 161q-150 0 -283 -55.5t-229 -151.5t-151.5 -231.5t-55.5 -290.5q0 -285 170.5 -451t473.5 -170q150 -3 305 45l-29 -188 q-128 -35 -246 -35q-258 0 -455.5 99t-305 280.5t-107.5 419.5zM651 436q0 -104 54 -171.5t137 -67.5q119 0 200.5 103.5t81.5 244.5q0 106 -53.5 168.5t-142.5 62.5q-118 0 -197.5 -97t-79.5 -243z" />
<glyph unicode="A" horiz-adv-x="1370" d="M29 0l497 1315h322l493 -1315h-321l-86 256h-518l-86 -256h-301zM485 461h381l-190 565z" />
<glyph unicode="B" horiz-adv-x="1253" d="M147 0v1315h533q221 0 330.5 -92.5t109.5 -261.5q0 -87 -48 -162.5t-124 -116.5q103 -33 170.5 -110t67.5 -197q0 -180 -116.5 -277.5t-346.5 -97.5h-576zM422 209h219q150 0 210 40.5t60 133.5q0 98 -65 141t-205 43h-219v-358zM422 774h203q221 0 221 168 q0 85 -51 124.5t-170 39.5h-203v-332z" />
<glyph unicode="C" horiz-adv-x="1363" d="M82 659q0 158 50 288.5t136 215t199.5 130.5t241.5 46q228 0 377 -111.5t196 -301.5l-252 -99q-26 126 -110.5 196.5t-210.5 70.5q-159 0 -254 -114.5t-95 -320.5t95 -321t254 -115q126 0 210.5 69.5t110.5 192.5l252 -96q-47 -189 -196.5 -301.5t-376.5 -112.5 q-128 0 -241.5 46t-199.5 131t-136 216t-50 291z" />
<glyph unicode="D" horiz-adv-x="1382" d="M147 0v1315h435q356 0 537 -171t181 -482q0 -314 -181.5 -488t-536.5 -174h-435zM422 233h158q242 0 346 105t104 324q0 216 -103 318.5t-347 102.5h-158v-850z" />
<glyph unicode="E" d="M147 0v1315h924v-238h-649v-303h571v-239h-571v-295h649v-240h-924z" />
<glyph unicode="F" horiz-adv-x="1085" d="M147 0v1315h867v-240h-592v-375h522v-241h-522v-459h-275z" />
<glyph unicode="G" horiz-adv-x="1429" d="M82 659q0 127 32.5 237t91 190.5t138 138t175 86t200.5 28.5q212 0 364.5 -103t208.5 -278l-245 -118q-31 120 -116.5 187t-211.5 67q-164 0 -261.5 -114t-97.5 -321q0 -206 97 -321t260 -115q123 0 206 59t115 173h-211v223h496v-678h-176l-25 178q-66 -95 -168.5 -149 t-236.5 -54q-131 0 -246 46t-202 131t-137 216t-50 291z" />
<glyph unicode="H" horiz-adv-x="1402" d="M147 0v1315h275v-557h559v557h274v-1315h-274v520h-559v-520h-275z" />
<glyph unicode="I" horiz-adv-x="569" d="M147 0v1315h275v-1315h-275z" />
<glyph unicode="J" horiz-adv-x="860" d="M45 240q85 -19 176 -19q119 0 170 88.5t51 280.5v725h273v-776q0 -287 -120 -424.5t-372 -137.5q-91 0 -168 15z" />
<glyph unicode="K" horiz-adv-x="1316" d="M147 0v1315h275v-553l512 553h344l-516 -559l545 -756h-336l-406 565l-143 -157v-408h-275z" />
<glyph unicode="L" horiz-adv-x="1089" d="M147 0v1315h275v-1075h610v-240h-885z" />
<glyph unicode="M" horiz-adv-x="1695" d="M147 0v1315h271l442 -785l443 785h245v-1315h-272v369l8 399l-362 -598h-140l-368 608l8 -409v-369h-275z" />
<glyph unicode="N" horiz-adv-x="1400" d="M147 0v1317h269l571 -842l-8 279v563h272v-1317h-262l-577 844l10 -283v-561h-275z" />
<glyph unicode="O" horiz-adv-x="1415" d="M82 659q0 158 50 288.5t136 215t199 130.5t240 46q128 0 241.5 -46t199 -130.5t135.5 -215t50 -288.5q0 -160 -50 -291t-136 -216t-199 -131t-241 -46t-240.5 46t-198.5 131t-136 216t-50 291zM360 659q0 -206 94.5 -321t252.5 -115q159 0 253.5 115t94.5 321 t-94.5 320.5t-253.5 114.5q-158 0 -252.5 -114.5t-94.5 -320.5z" />
<glyph unicode="P" horiz-adv-x="1245" d="M147 0v1317h510q252 0 385.5 -119t133.5 -332q0 -212 -133.5 -328t-387.5 -116h-233v-422h-275zM422 662h233q115 0 177.5 52t62.5 152q0 103 -62 156t-176 53h-235v-413z" />
<glyph unicode="Q" horiz-adv-x="1415" d="M82 659q0 158 50 288.5t136 215t199 130.5t240 46q128 0 241.5 -46t199 -130.5t135.5 -215t50 -288.5q0 -188 -69 -334t-183 -230t-260 -109q10 -79 61.5 -110.5t157.5 -31.5h103v-239h-105q-109 0 -186 23.5t-124 72.5t-70.5 116.5t-28.5 162.5q-115 13 -213.5 64.5 t-173.5 136t-117.5 208t-42.5 270.5zM360 659q0 -206 94.5 -321t252.5 -115q159 0 253.5 115t94.5 321t-94.5 320.5t-253.5 114.5q-158 0 -252.5 -114.5t-94.5 -320.5z" />
<glyph unicode="R" horiz-adv-x="1269" d="M147 0v1317h523q241 0 376.5 -117.5t135.5 -320.5q0 -148 -73 -251t-210 -149l309 -479h-305l-280 444h-201v-444h-275zM422 684h246q115 0 177 50.5t62 144.5q0 95 -61.5 145.5t-175.5 50.5h-248v-391z" />
<glyph unicode="S" horiz-adv-x="1099" d="M55 281l224 137q45 -103 113.5 -153t172.5 -50q87 0 143 41.5t56 105.5q0 71 -65 112.5t-230 92.5q-185 57 -278 147.5t-93 239.5q0 170 128 274.5t325 104.5q161 0 286.5 -79t174.5 -214l-236 -112q-26 72 -86.5 118t-140.5 46q-87 0 -132.5 -35t-45.5 -96 q0 -26 7.5 -46.5t27 -38t37.5 -29.5t55.5 -26.5t63 -23.5t77.5 -25q94 -30 162.5 -62.5t124.5 -77.5t84 -104.5t28 -134.5q0 -190 -133.5 -304t-353.5 -114q-358 0 -496 306z" />
<glyph unicode="T" horiz-adv-x="1169" d="M41 1075v240h1087v-240h-407v-1075h-275v1075h-405z" />
<glyph unicode="U" horiz-adv-x="1370" d="M137 553v762h275l-2 -752q0 -188 63.5 -275t210.5 -87t210.5 87t63.5 275v752h273v-762q0 -291 -138 -442t-409 -152q-273 0 -410 152.5t-137 441.5z" />
<glyph unicode="V" horiz-adv-x="1359" d="M33 1315h323l336 -996l334 996h301l-504 -1315h-291z" />
<glyph unicode="W" horiz-adv-x="2027" d="M25 1315h313l260 -922l270 922h283l281 -928l264 928h307l-416 -1315h-295l-284 938l-273 -938h-295z" />
<glyph unicode="X" horiz-adv-x="1257" d="M14 0l420 657l-416 658l322 2l291 -465l291 463h319l-414 -658l418 -657h-323l-291 461l-293 -461h-324z" />
<glyph unicode="Y" horiz-adv-x="1210" d="M12 1315h312l200 -357l92 -174l93 174l202 357h289l-457 -787v-528h-272v528z" />
<glyph unicode="Z" horiz-adv-x="1210" d="M109 0v223l577 746l88 106h-665v240h993v-223l-602 -783l-56 -69h658v-240h-993z" />
<glyph unicode="[" horiz-adv-x="614" d="M180 -190v1675h377v-197h-145v-1282h145v-196h-377z" />
<glyph unicode="\" horiz-adv-x="872" d="M16 1315h277l348 -1315h-279z" />
<glyph unicode="]" horiz-adv-x="614" d="M57 8h146v1282h-146v197h377v-1675h-377v196z" />
<glyph unicode="^" horiz-adv-x="1333" d="M143 868l387 457h258l404 -457h-201l-332 336l-313 -336h-203z" />
<glyph unicode="_" horiz-adv-x="1134" d="M0 -104h1135v-177h-1135v177z" />
<glyph unicode="`" horiz-adv-x="741" d="M479 1714l217 68l248 -281l-151 -63z" />
<glyph unicode="a" horiz-adv-x="1075" d="M59 270q0 139 97.5 214.5t289.5 99.5l230 28q-6 100 -45.5 151.5t-124.5 51.5q-149 0 -184 -147l-222 73q42 135 154.5 208t269.5 73q84 0 154 -20t129.5 -63.5t93 -123t33.5 -188.5v-449h117l-2 -178h-299l-13 135h-12q-42 -68 -128.5 -111.5t-201.5 -43.5 q-153 0 -244.5 78t-91.5 212zM317 291q0 -54 34.5 -87.5t97.5 -33.5q87 0 158 59t71 156v61l-158 -16q-108 -11 -155.5 -41.5t-47.5 -97.5z" />
<glyph unicode="b" horiz-adv-x="1189" d="M119 0v1374l256 35v-518h16q90 133 283 133q91 0 173 -36.5t144 -102t98.5 -165t36.5 -218.5q0 -118 -36.5 -217.5t-99 -165.5t-144.5 -102.5t-174 -36.5q-193 0 -283 133h-14v-113h-256zM377 504q0 -147 68.5 -223t181.5 -76q109 0 173 77.5t64 219.5t-64 219.5 t-171 77.5q-113 0 -182.5 -75.5t-69.5 -219.5z" />
<glyph unicode="c" horiz-adv-x="1081" d="M61 502q0 236 137.5 379t370.5 143q168 0 293 -89.5t156 -234.5l-234 -86q-17 89 -77.5 137t-139.5 48q-117 0 -179 -80t-62 -217q0 -139 62.5 -219t178.5 -80q80 0 141.5 48t75.5 136l234 -86q-31 -145 -156 -234.5t-293 -89.5q-228 0 -368 145t-140 380z" />
<glyph unicode="d" horiz-adv-x="1187" d="M63 502q0 119 36.5 218.5t99 165t144.5 102t173 36.5q193 0 283 -133h14v483l256 35v-1409h-256v113h-12q-90 -133 -283 -133q-92 0 -174 36.5t-144.5 102.5t-99.5 165.5t-37 217.5zM326 502q0 -142 64 -219.5t173 -77.5q113 0 181.5 76t68.5 223q0 144 -69.5 219.5 t-182.5 75.5q-107 0 -171 -77.5t-64 -219.5z" />
<glyph unicode="e" horiz-adv-x="1079" d="M61 502q0 237 138.5 379.5t361.5 142.5q207 0 332 -136q123 -134 123 -344v-7v-82h-694q12 -122 75.5 -187t165.5 -65q73 0 132 38t85 115l209 -116q-48 -114 -161.5 -188.5t-262.5 -74.5q-222 0 -363 142.5t-141 382.5zM328 621h428q-9 89 -62.5 140.5t-144.5 51.5 q-87 0 -144.5 -50.5t-76.5 -141.5z" />
<glyph unicode="f" horiz-adv-x="731" d="M43 793v204h156v17q0 89 23.5 159t61 114.5t89 73.5t104.5 40.5t111 11.5q93 0 162 -16v-232q-63 19 -125 19q-79 0 -122 -48.5t-46 -138.5h243v-204h-243v-793h-258v793h-156z" />
<glyph unicode="g" horiz-adv-x="1191" d="M63 510q0 233 128.5 373.5t324.5 140.5q201 0 291 -133h27l8 102h235v-850q0 -264 -142 -402t-396 -138q-152 0 -275.5 61t-193.5 174l163 146q40 -68 117.5 -116t169.5 -48q148 0 224.5 75t76.5 214v16h-16q-93 -129 -287 -129q-206 0 -330.5 139.5t-124.5 374.5z M326 510q0 -143 63.5 -221t175.5 -78q117 0 185.5 76.5t68.5 224.5q0 145 -69.5 220t-186.5 75q-110 0 -173.5 -77t-63.5 -220z" />
<glyph unicode="h" d="M123 0v1374l256 35v-532h6q42 65 119 106t178 41q72 0 133 -19.5t112.5 -60.5t81 -114t29.5 -171v-659h-258v561q0 124 -42.5 178t-131.5 54q-107 0 -172 -78q-55 -71 -55 -234v-481h-256z" />
<glyph unicode="i" horiz-adv-x="493" d="M88 1292q0 71 45.5 115.5t114.5 44.5q67 0 112.5 -44.5t45.5 -115.5q0 -68 -45.5 -110.5t-112.5 -42.5t-113.5 42.5t-46.5 110.5zM117 0v997h258v-997h-258z" />
<glyph unicode="j" horiz-adv-x="495" d="M-176 -135q63 -19 125 -19q82 0 125 52.5t43 148.5v438h2v508h256v-977q0 -89 -23.5 -159t-61 -114.5t-89 -73.5t-104.5 -40.5t-111 -11.5q-93 0 -162 16v232zM88 1292q0 71 45.5 115.5t114.5 44.5q67 0 112.5 -44.5t45.5 -115.5q0 -68 -45.5 -110.5t-112.5 -42.5 t-113.5 42.5t-46.5 110.5z" />
<glyph unicode="k" horiz-adv-x="1097" d="M119 0v1374l256 35v-791l375 379h325l-407 -387l430 -610h-291l-315 440l-117 -110v-330h-256z" />
<glyph unicode="l" horiz-adv-x="493" d="M119 0v1374l256 35v-1409h-256z" />
<glyph unicode="m" horiz-adv-x="1753" d="M123 0v997h237l9 -120h14q43 67 116.5 107t168.5 40q221 0 299 -162h18q45 74 124.5 118t184.5 44q67 0 124.5 -17t107.5 -55t79 -109t29 -169v-674h-258v580q0 113 -40.5 164t-118.5 51q-100 0 -155.5 -77t-55.5 -202v-516h-256v580q0 215 -160 215q-103 0 -157 -78 t-54 -201v-516h-256z" />
<glyph unicode="n" d="M123 0v997h237l9 -120h16q42 65 119 106t178 41q72 0 133 -19.5t112.5 -60.5t81 -114t29.5 -171v-659h-258v561q0 124 -42.5 178t-131.5 54q-107 0 -172 -78q-55 -71 -55 -234v-481h-256z" />
<glyph unicode="o" horiz-adv-x="1130" d="M61 502q0 239 140.5 380.5t363.5 141.5q224 0 364 -141t140 -381t-140 -382.5t-364 -142.5q-223 0 -363.5 142.5t-140.5 382.5zM326 502q0 -141 62.5 -222t176.5 -81q117 0 179.5 80.5t62.5 222.5q0 141 -62.5 221t-179.5 80q-114 0 -176.5 -80t-62.5 -221z" />
<glyph unicode="p" horiz-adv-x="1191" d="M123 -383v1380h256v-106h16q90 133 283 133q91 0 173 -36.5t144 -102t98.5 -165t36.5 -218.5q0 -118 -36.5 -217.5t-99 -165.5t-144.5 -102.5t-174 -36.5q-193 0 -283 133h-14v-496h-256zM381 504q0 -147 68.5 -223t181.5 -76q109 0 173 77.5t64 219.5t-64 219.5 t-171 77.5q-113 0 -182.5 -75.5t-69.5 -219.5z" />
<glyph unicode="q" horiz-adv-x="1191" d="M61 502q0 119 36.5 218.5t99 165t144.5 102t173 36.5q193 0 283 -133h16v106h256v-1380h-256v496h-14q-90 -133 -283 -133q-92 0 -174 36.5t-144.5 102.5t-99.5 165.5t-37 217.5zM324 502q0 -142 64 -219.5t173 -77.5q113 0 181.5 76t68.5 223q0 144 -69.5 219.5 t-182.5 75.5q-107 0 -171 -77.5t-64 -219.5z" />
<glyph unicode="r" horiz-adv-x="731" d="M123 0v993h237l13 -164h12q37 87 109.5 141t156.5 54q40 0 76 -12l-20 -252q-29 16 -95 16q-100 0 -165.5 -64t-65.5 -184v-528h-258z" />
<glyph unicode="s" horiz-adv-x="940" d="M53 143l101 191q42 -59 131.5 -102.5t185.5 -43.5q71 0 110.5 25t39.5 70q0 42 -46 68.5t-153 54.5q-77 20 -135 44.5t-107.5 61.5t-75.5 89t-26 118q0 142 105.5 223.5t285.5 81.5q112 0 215 -37t180 -102l-102 -193q-53 54 -136.5 88.5t-164.5 34.5q-59 0 -93 -23 t-34 -59q0 -50 81 -82q34 -13 130 -39q72 -19 127.5 -43t103 -59.5t73 -87t25.5 -115.5q0 -147 -109.5 -238.5t-295.5 -91.5q-260 0 -416 166z" />
<glyph unicode="t" horiz-adv-x="743" d="M25 793v204h122v252l256 33v-285h256v-204h-253v-379q0 -96 42.5 -148.5t124.5 -52.5q66 0 125 18v-231q-69 -16 -161 -16q-58 0 -111 11.5t-105 40.5t-89.5 73.5t-61 114.5t-23.5 159v410h-122z" />
<glyph unicode="u" d="M121 338v659h258v-561q0 -124 42.5 -177.5t131.5 -53.5q107 0 172 78q55 71 55 233v481h256v-997h-237l-8 121h-17q-42 -66 -119 -107t-178 -41q-72 0 -133 19.5t-112.5 60.5t-81 114t-29.5 171z" />
<glyph unicode="v" horiz-adv-x="1085" d="M29 997h295l229 -727l233 727h271l-375 -997h-281z" />
<glyph unicode="w" horiz-adv-x="1634" d="M29 997h268l207 -647l182 647h264l183 -647l206 647h269l-355 -997h-231l-205 700l-205 -700h-227z" />
<glyph unicode="x" horiz-adv-x="1089" d="M6 0l377 500l-371 497h291l242 -321l241 321h289l-370 -497l380 -500h-297l-243 319l-246 -319h-293z" />
<glyph unicode="y" horiz-adv-x="1085" d="M29 997h295l229 -727l233 727h271l-142 -374l3 2l-379 -1010h-273l137 381z" />
<glyph unicode="z" horiz-adv-x="894" d="M59 0v164l480 629h-471v204h761v-168l-464 -622h469v-207h-775z" />
<glyph unicode="{" horiz-adv-x="589" d="M82 573v168q79 0 100 27t21 131v275q0 90 22 151t66.5 95.5t103.5 48.5t142 14v-207q-63 0 -84 -29t-21 -121v-237q0 -164 -82 -232q82 -70 82 -233v-240q0 -92 21 -120.5t84 -28.5v-207q-83 0 -142 14t-103.5 48.5t-66.5 95.5t-22 151v279q0 103 -21 130t-100 27z" />
<glyph unicode="|" horiz-adv-x="679" d="M205 -403v1777l258 35v-1812h-258z" />
<glyph unicode="}" horiz-adv-x="573" d="M47 35q63 0 84 28.5t21 120.5v238q0 164 81 231q-81 70 -81 234v239q0 92 -21 121t-84 29v207q83 0 142 -14t103.5 -48.5t66.5 -95.5t22 -151v-279q0 -104 21 -131t100 -27v-168q-79 0 -100 -27t-21 -130v-275q0 -90 -22 -151t-66.5 -95.5t-103.5 -48.5t-142 -14v207z " />
<glyph unicode="~" horiz-adv-x="927" d="M76 469q0 149 58.5 234t166.5 85q48 0 92 -21.5t72 -48t62.5 -48t64.5 -21.5q44 0 68 33t24 94h170q0 -150 -59 -233.5t-166 -83.5q-48 0 -93 21.5t-72.5 47t-62 47t-63.5 21.5q-44 0 -68 -33t-24 -94h-170z" />
<glyph unicode="&#xa1;" horiz-adv-x="555" d="M115 926q0 67 41.5 112t113.5 45q73 0 115.5 -45t42.5 -112t-42.5 -111.5t-115.5 -44.5q-72 0 -113.5 44.5t-41.5 111.5zM143 -252l21 870h221l18 -870h-260z" />
<glyph unicode="&#xa2;" horiz-adv-x="1081" d="M61 522q0 201 101.5 337t281.5 173v182h218v-178q137 -22 233.5 -106t122.5 -209l-234 -86q-17 88 -77.5 136t-139.5 48q-117 0 -179 -80t-62 -217q0 -139 62.5 -219t178.5 -80q80 0 141.5 48.5t75.5 136.5l234 -86q-26 -125 -122.5 -209.5t-233.5 -106.5v-164h-218v168 q-176 39 -279.5 175.5t-103.5 336.5z" />
<glyph unicode="&#xa3;" horiz-adv-x="1054" d="M80 0v207h178v242h-166v206h166q0 559 490 559q93 0 165 -14l11 -237q-94 24 -176 24q-122 0 -175 -76t-53 -256h275v-206h-275v-242h467v-207h-907z" />
<glyph unicode="&#xa4;" horiz-adv-x="1015" d="M61 291l95 96q-78 105 -78 242q0 130 67 225l-84 86l123 121l90 -92q107 55 236 55q131 0 231 -53l90 90l121 -121l-82 -84q68 -96 68 -227q0 -139 -78 -244l92 -92l-121 -121l-106 104q-92 -47 -215 -47t-219 47l-107 -106zM322 629q0 -87 50 -137t138 -50 q85 0 133.5 50.5t48.5 136.5q0 84 -49 134t-133 50q-87 0 -137.5 -50t-50.5 -134z" />
<glyph unicode="&#xa5;" horiz-adv-x="1210" d="M12 1315h312l200 -357l92 -174l93 174l202 357h289l-328 -565h154v-185h-260l-23 -37v-61h283v-186h-283v-281h-272v281h-324v186h324v61l-22 37h-302v185h195z" />
<glyph unicode="&#xa6;" horiz-adv-x="679" d="M205 -330v903h258v-903h-258zM205 805v569l258 35v-604h-258z" />
<glyph unicode="&#xa7;" horiz-adv-x="1069" d="M53 428q0 174 164 254q-67 77 -67 188q0 155 113.5 246.5t303.5 91.5q128 0 248 -49v-237q-127 73 -254 73q-73 0 -114 -27.5t-41 -72.5q0 -20 7 -37t26 -30.5t34 -22.5t50.5 -20.5t53.5 -17t64 -17.5q81 -21 141.5 -46.5t114.5 -64t82.5 -96t28.5 -131.5 q0 -174 -164 -258q69 -72 69 -185q0 -161 -121 -257.5t-321 -96.5q-156 0 -274 59v230q143 -76 276 -76q84 0 131 30t47 85q0 54 -52 87t-169 62q-67 18 -116.5 35.5t-101.5 45.5t-84.5 61.5t-53.5 83t-21 110.5zM311 453q0 -38 34 -66t67 -39.5t115 -34.5q13 -4 20 -6 q29 -7 94 -28q107 31 107 106q0 54 -53 87.5t-171 64.5q-14 4 -50 13t-56 15q-107 -37 -107 -112z" />
<glyph unicode="&#xa8;" horiz-adv-x="870" d="M158 1622q0 53 38 89t93 36q58 0 95.5 -36t37.5 -89q0 -57 -37.5 -94t-95.5 -37q-56 0 -93.5 37t-37.5 94zM557 1622q0 53 38 89t95 36q58 0 95.5 -36t37.5 -89q0 -57 -37.5 -94t-95.5 -37q-57 0 -95 37t-38 94z" />
<glyph unicode="&#xa9;" horiz-adv-x="1697" d="M113 672q0 206 97 371.5t263 256.5t367 91q150 0 283.5 -54t230.5 -147.5t154 -228.5t57 -289t-57 -288.5t-154 -229t-231 -149t-283 -54.5q-150 0 -284.5 54.5t-231.5 149t-154 229t-57 288.5zM246 670q0 -268 167 -437.5t425 -169.5q169 0 304 76.5t212.5 215.5 t77.5 315q0 272 -167 440t-425 168q-259 0 -426.5 -168.5t-167.5 -439.5zM459 668q0 181 105 290t284 109q130 0 225.5 -68t118.5 -180l-178 -65q-13 68 -59.5 104.5t-108.5 36.5q-89 0 -136.5 -61t-47.5 -166q0 -107 47.5 -168.5t136.5 -61.5q62 0 109 37t59 105l178 -66 q-23 -112 -118.5 -180t-225.5 -68q-175 0 -282 111t-107 291z" />
<glyph unicode="&#xaa;" horiz-adv-x="798" d="M55 838q0 93 72.5 148t206.5 69l145 16q-10 111 -104 111q-91 0 -113 -92l-178 53q31 97 112.5 147.5t194.5 50.5q58 0 108.5 -14t93.5 -43.5t68 -84t25 -128.5v-274h84l-2 -140h-223l-8 84h-13q-32 -43 -91 -70.5t-138 -27.5q-111 0 -175.5 53t-64.5 142zM262 860 q0 -30 20 -49.5t58 -19.5q53 0 97 34t44 88v35l-84 -6q-72 -7 -103.5 -23.5t-31.5 -58.5z" />
<glyph unicode="&#xab;" horiz-adv-x="1013" d="M61 645l215 354h246l-211 -350l211 -350h-250zM471 645l215 354h246l-211 -350l211 -350h-250z" />
<glyph unicode="&#xac;" horiz-adv-x="1118" d="M127 573v195h862v-401h-270v206h-592z" />
<glyph unicode="&#xad;" horiz-adv-x="667" d="M57 537v239h568v-239h-568z" />
<glyph unicode="&#xae;" horiz-adv-x="917" d="M55 981q0 175 118 291.5t286 116.5q167 0 284 -116.5t117 -291.5t-117 -291.5t-284 -116.5q-168 0 -286 116.5t-118 291.5zM127 981q0 -147 96 -243.5t236 -96.5q138 0 235 96.5t97 243.5q0 146 -97.5 243t-234.5 97q-139 0 -235.5 -97t-96.5 -243zM303 778v430h170 q72 0 116 -39t44 -108q0 -90 -88 -127l90 -156h-123l-76 146h-24v-146h-109zM412 1012h59q53 0 53 53q0 51 -53 51h-59v-104z" />
<glyph unicode="&#xaf;" horiz-adv-x="743" d="M150 1518v192h565v-192h-565z" />
<glyph unicode="&#xb0;" horiz-adv-x="839" d="M102 1214q0 125 94 213.5t226 88.5q129 0 222 -89t93 -213q0 -125 -92.5 -213t-222.5 -88q-132 0 -226 88.5t-94 212.5zM305 1214q0 -45 34 -76.5t83 -31.5q47 0 81 32t34 76q0 46 -34 78.5t-81 32.5q-49 0 -83 -32.5t-34 -78.5z" />
<glyph unicode="&#xb1;" horiz-adv-x="1210" d="M150 164v180h913v-180h-913zM150 739v179h366v280h180v-280h367v-179h-367v-280h-180v280h-366z" />
<glyph unicode="&#xb2;" horiz-adv-x="815" d="M63 711l3 41q2 59 29 108t68.5 83t92 64t100 57.5t91 55t67 64.5t25.5 80q0 63 -39 97t-101 34q-133 0 -147 -158l-166 29q10 131 97.5 207.5t224.5 76.5q144 0 231.5 -79.5t87.5 -206.5q0 -66 -28 -121t-70 -90t-93.5 -65.5t-97 -49t-81 -39t-44.5 -37.5l258 10h179 v-161h-687z" />
<glyph unicode="&#xb3;" horiz-adv-x="831" d="M53 911l178 56q32 -111 172 -111q71 0 118.5 28.5t47.5 78.5q0 53 -50.5 77.5t-176.5 24.5v129q97 0 147 24t50 80q0 44 -40 70.5t-98 26.5q-56 0 -95.5 -27t-51.5 -72l-164 47q24 93 108.5 150t213.5 57q138 0 227.5 -63.5t89.5 -171.5q0 -115 -123 -176 q154 -51 154 -185q0 -122 -102.5 -191t-258.5 -69q-135 0 -229 58.5t-117 158.5z" />
<glyph unicode="&#xb4;" horiz-adv-x="741" d="M188 1501l248 281l217 -68l-313 -276z" />
<glyph unicode="&#xb6;" horiz-adv-x="1306" d="M262 1016q0 128 93.5 213.5t246.5 85.5v-600q-153 0 -246.5 86.5t-93.5 214.5zM442 -135q63 -19 125 -19q82 0 125 52.5t43 148.5v1268h531v-240h-273v-1059q0 -89 -23.5 -159t-61 -114.5t-89 -73.5t-104.5 -40.5t-111 -11.5q-93 0 -162 16v232z" />
<glyph unicode="&#xb7;" horiz-adv-x="487" d="M84 664q0 69 43.5 115t118.5 46q76 0 120 -46t44 -115q0 -70 -44 -117t-120 -47q-75 0 -118.5 47t-43.5 117z" />
<glyph unicode="&#xb8;" horiz-adv-x="706" d="M-6 -313l266 368l170 -32l-215 -461z" />
<glyph unicode="&#xb9;" horiz-adv-x="581" d="M74 1370v164h362v-823h-190v659h-172z" />
<glyph unicode="&#xba;" horiz-adv-x="829" d="M53 993q0 161 100.5 255.5t260.5 94.5t261 -94.5t101 -255.5t-101 -256.5t-261 -95.5t-260.5 95t-100.5 257zM266 993q0 -81 38.5 -129.5t109.5 -48.5q74 0 111.5 47.5t37.5 130.5q0 81 -37.5 127.5t-111.5 46.5q-71 0 -109.5 -47t-38.5 -127z" />
<glyph unicode="&#xbb;" horiz-adv-x="1013" d="M82 295l211 350l-211 350h250l211 -346l-215 -354h-246zM492 295l210 350l-210 350h249l211 -346l-215 -354h-245z" />
<glyph unicode="&#xbc;" horiz-adv-x="1652" d="M74 1165v164h362v-823h-190v659h-172zM211 0l915 1329h230l-916 -1329h-229zM860 252l277 571h202l-241 -504h192v193h189v-193h104v-159h-104v-160h-189v160h-403z" />
<glyph unicode="&#xbd;" horiz-adv-x="1781" d="M74 1165v164h362v-823h-190v659h-172zM227 0l916 1329h229l-915 -1329h-230zM1030 0l2 41q2 59 29 108t68.5 83t92 64t100 57.5t91 55t67 64.5t25.5 80q0 63 -39 97t-100 34q-133 0 -147 -158l-166 29q10 132 97 208.5t224 76.5q144 0 232 -80t88 -207q0 -66 -28 -121 t-70 -89.5t-93.5 -65t-97 -49t-81 -39t-44.5 -37.5l258 10h178v-162h-686z" />
<glyph unicode="&#xbe;" horiz-adv-x="1898" d="M53 707l178 55q32 -111 172 -111q71 0 118.5 28.5t47.5 78.5q0 53 -50.5 77.5t-176.5 24.5v129q97 0 147 24.5t50 80.5q0 44 -40 70t-98 26q-56 0 -95.5 -26.5t-51.5 -71.5l-164 47q24 93 108.5 150t213.5 57q138 0 227.5 -64t89.5 -172q0 -114 -123 -176 q154 -51 154 -184q0 -122 -103 -191.5t-258 -69.5q-134 0 -228.5 58.5t-117.5 159.5zM428 0l915 1329h230l-916 -1329h-229zM1106 252l276 571h203l-242 -504h193v193h188v-193h105v-159h-105v-160h-188v160h-403z" />
<glyph unicode="&#xbf;" horiz-adv-x="1009" d="M70 117q0 161 91.5 262t246.5 131v121h229v-299h-59q-137 -1 -203 -54.5t-66 -160.5q0 -92 59.5 -143.5t153.5 -51.5q186 0 226 219l210 -59q-20 -166 -139.5 -266.5t-302.5 -100.5q-193 0 -319.5 110.5t-126.5 291.5zM367 918q0 67 42 112t115 45q72 0 114 -45t42 -112 t-41.5 -111.5t-114.5 -44.5t-115 44.5t-42 111.5z" />
<glyph unicode="&#xc0;" horiz-adv-x="1370" d="M29 0l497 1315h322l493 -1315h-321l-86 256h-518l-86 -256h-301zM379 1675l217 68l248 -281l-152 -63zM485 461h381l-190 565z" />
<glyph unicode="&#xc1;" horiz-adv-x="1370" d="M29 0l497 1315h322l493 -1315h-321l-86 256h-518l-86 -256h-301zM485 461h381l-190 565zM537 1462l245 281l219 -68l-313 -276z" />
<glyph unicode="&#xc2;" horiz-adv-x="1370" d="M29 0l497 1315h322l493 -1315h-321l-86 256h-518l-86 -256h-301zM360 1458l213 246h224l204 -246l-176 -41l-141 148l-160 -148zM485 461h381l-190 565z" />
<glyph unicode="&#xc3;" horiz-adv-x="1370" d="M29 0l497 1315h322l493 -1315h-321l-86 256h-518l-86 -256h-301zM340 1448q21 119 73 185.5t130 66.5q46 0 91.5 -24.5t86.5 -49t76 -24.5q38 0 66 24.5t42 69.5l123 -39q-19 -119 -70 -183.5t-131 -64.5q-46 0 -92 24t-87 48t-75 24q-79 0 -108 -94zM485 461h381 l-190 565z" />
<glyph unicode="&#xc4;" horiz-adv-x="1370" d="M29 0l497 1315h322l493 -1315h-321l-86 256h-518l-86 -256h-301zM356 1575q0 53 38 89t93 36q58 0 96 -36t38 -89q0 -56 -38 -92.5t-96 -36.5q-56 0 -93.5 37t-37.5 92zM485 461h381l-190 565zM754 1575q0 52 37.5 88.5t91.5 36.5q58 0 95.5 -36t37.5 -89 q0 -56 -37.5 -92.5t-95.5 -36.5q-54 0 -91.5 37t-37.5 92z" />
<glyph unicode="&#xc5;" horiz-adv-x="1370" d="M29 0l497 1315h322l493 -1315h-321l-86 256h-518l-86 -256h-301zM485 461h381l-190 565zM498 1581q0 74 52.5 126t137.5 52q86 0 139.5 -52t53.5 -126q0 -75 -53.5 -126.5t-139.5 -51.5t-138 51t-52 127zM627 1581q0 -23 16.5 -38t44.5 -15q30 0 47 15t17 38q0 21 -17 36 t-47 15q-28 0 -44.5 -15t-16.5 -36z" />
<glyph unicode="&#xc6;" horiz-adv-x="1865" d="M29 0l731 1315h1020v-238h-650v-303h572v-239h-572v-295h650v-240h-924v256h-410l-139 -256h-278zM549 444h307v572l-119 -223z" />
<glyph unicode="&#xc7;" horiz-adv-x="1363" d="M82 659q0 158 50 288.5t136 215t199.5 130.5t241.5 46q228 0 377 -111.5t196 -301.5l-252 -99q-26 126 -110.5 196.5t-210.5 70.5q-159 0 -254 -114.5t-95 -320.5t95 -321t254 -115q126 0 210.5 69.5t110.5 192.5l252 -96q-42 -168 -165 -276t-310 -131l-195 -420 l-219 125l213 297q-111 17 -205.5 70t-166 136.5t-112 204t-40.5 264.5z" />
<glyph unicode="&#xc8;" d="M147 0v1315h924v-238h-649v-303h571v-239h-571v-295h649v-240h-924zM326 1675l217 68l248 -281l-152 -63z" />
<glyph unicode="&#xc9;" d="M147 0v1315h924v-238h-649v-303h571v-239h-571v-295h649v-240h-924zM483 1462l246 281l219 -68l-313 -276z" />
<glyph unicode="&#xca;" d="M147 0v1315h924v-238h-649v-303h571v-239h-571v-295h649v-240h-924zM307 1458l213 246h223l205 -246l-176 -41l-141 148l-160 -148z" />
<glyph unicode="&#xcb;" d="M147 0v1315h924v-238h-649v-303h571v-239h-571v-295h649v-240h-924zM303 1575q0 53 38 89t93 36q58 0 95.5 -36t37.5 -89q0 -56 -37.5 -92.5t-95.5 -36.5q-56 0 -93.5 37t-37.5 92zM700 1575q0 52 37.5 88.5t91.5 36.5q58 0 96 -36t38 -89q0 -56 -38 -92.5t-96 -36.5 q-54 0 -91.5 37t-37.5 92z" />
<glyph unicode="&#xcc;" horiz-adv-x="569" d="M-23 1675l218 68l247 -281l-151 -63zM147 0v1315h275v-1315h-275z" />
<glyph unicode="&#xcd;" horiz-adv-x="569" d="M135 1462l246 281l219 -68l-313 -276zM147 0v1315h275v-1315h-275z" />
<glyph unicode="&#xce;" horiz-adv-x="569" d="M-41 1458l213 246h223l205 -246l-176 -41l-141 148l-160 -148zM147 0v1315h275v-1315h-275z" />
<glyph unicode="&#xcf;" horiz-adv-x="569" d="M-45 1575q0 53 38 89t93 36q58 0 95.5 -36t37.5 -89q0 -56 -37.5 -92.5t-95.5 -36.5q-56 0 -93.5 37t-37.5 92zM147 0v1315h275v-1315h-275zM352 1575q0 52 37.5 88.5t91.5 36.5q58 0 95.5 -36t37.5 -89q0 -56 -37.5 -92.5t-95.5 -36.5q-54 0 -91.5 37t-37.5 92z" />
<glyph unicode="&#xd0;" horiz-adv-x="1382" d="M61 537v239h86v539h435q356 0 537 -171t181 -482q0 -314 -181.5 -488t-536.5 -174h-435v537h-86zM422 233h158q242 0 346 105t104 324q0 216 -103 318.5t-347 102.5h-158v-307h291v-239h-291v-304z" />
<glyph unicode="&#xd1;" horiz-adv-x="1400" d="M147 0v1317h269l571 -842l-8 279v563h272v-1317h-262l-577 844l10 -283v-561h-275zM358 1448q21 119 73 185.5t130 66.5q46 0 91.5 -24.5t86.5 -49t76 -24.5q38 0 66.5 25t42.5 69l123 -39q-19 -119 -70 -183.5t-131 -64.5q-46 0 -92 24t-87 48t-75 24q-80 0 -109 -94z " />
<glyph unicode="&#xd2;" horiz-adv-x="1415" d="M82 659q0 158 50 288.5t136 215t199 130.5t240 46q128 0 241.5 -46t199 -130.5t135.5 -215t50 -288.5q0 -160 -50 -291t-136 -216t-199 -131t-241 -46t-240.5 46t-198.5 131t-136 216t-50 291zM360 659q0 -206 94.5 -321t252.5 -115q159 0 253.5 115t94.5 321 t-94.5 320.5t-253.5 114.5q-158 0 -252.5 -114.5t-94.5 -320.5zM401 1675l217 68l248 -281l-151 -63z" />
<glyph unicode="&#xd3;" horiz-adv-x="1415" d="M82 659q0 158 50 288.5t136 215t199 130.5t240 46q128 0 241.5 -46t199 -130.5t135.5 -215t50 -288.5q0 -160 -50 -291t-136 -216t-199 -131t-241 -46t-240.5 46t-198.5 131t-136 216t-50 291zM360 659q0 -206 94.5 -321t252.5 -115q159 0 253.5 115t94.5 321 t-94.5 320.5t-253.5 114.5q-158 0 -252.5 -114.5t-94.5 -320.5zM559 1462l246 281l219 -68l-313 -276z" />
<glyph unicode="&#xd4;" horiz-adv-x="1415" d="M82 659q0 158 50 288.5t136 215t199 130.5t240 46q128 0 241.5 -46t199 -130.5t135.5 -215t50 -288.5q0 -160 -50 -291t-136 -216t-199 -131t-241 -46t-240.5 46t-198.5 131t-136 216t-50 291zM360 659q0 -206 94.5 -321t252.5 -115q159 0 253.5 115t94.5 321 t-94.5 320.5t-253.5 114.5q-158 0 -252.5 -114.5t-94.5 -320.5zM383 1458l213 246h223l205 -246l-176 -41l-141 148l-160 -148z" />
<glyph unicode="&#xd5;" horiz-adv-x="1415" d="M82 659q0 158 50 288.5t136 215t199 130.5t240 46q128 0 241.5 -46t199 -130.5t135.5 -215t50 -288.5q0 -160 -50 -291t-136 -216t-199 -131t-241 -46t-240.5 46t-198.5 131t-136 216t-50 291zM360 659q0 -206 94.5 -321t252.5 -115q159 0 253.5 115t94.5 321 t-94.5 320.5t-253.5 114.5q-158 0 -252.5 -114.5t-94.5 -320.5zM362 1448q21 119 73 185.5t130 66.5q46 0 91.5 -24.5t86.5 -49t76 -24.5q38 0 66.5 25t42.5 69l123 -39q-19 -119 -70 -183.5t-131 -64.5q-46 0 -92 24t-87 48t-75 24q-80 0 -109 -94z" />
<glyph unicode="&#xd6;" horiz-adv-x="1415" d="M82 659q0 158 50 288.5t136 215t199 130.5t240 46q128 0 241.5 -46t199 -130.5t135.5 -215t50 -288.5q0 -160 -50 -291t-136 -216t-199 -131t-241 -46t-240.5 46t-198.5 131t-136 216t-50 291zM360 659q0 -206 94.5 -321t252.5 -115q159 0 253.5 115t94.5 321 t-94.5 320.5t-253.5 114.5q-158 0 -252.5 -114.5t-94.5 -320.5zM379 1575q0 53 38 89t93 36q58 0 95.5 -36t37.5 -89q0 -56 -37.5 -92.5t-95.5 -36.5q-56 0 -93.5 37t-37.5 92zM776 1575q0 52 37.5 88.5t91.5 36.5q58 0 95.5 -36t37.5 -89q0 -56 -37.5 -92.5t-95.5 -36.5 q-54 0 -91.5 37t-37.5 92z" />
<glyph unicode="&#xd7;" horiz-adv-x="1048" d="M119 397l270 271l-270 268l137 135l266 -268l269 268l139 -135l-268 -268l268 -271l-139 -133l-269 266l-266 -266z" />
<glyph unicode="&#xd8;" horiz-adv-x="1415" d="M82 659q0 158 50 288.5t136 215t199 130.5t240 46q200 0 350 -102l82 98l127 -108l-86 -101q153 -183 153 -467q0 -160 -50 -291t-136 -216t-199 -131t-241 -46q-222 0 -388 131l-92 -110l-127 108l105 125q-123 176 -123 430zM360 659q0 -111 33 -208l498 591 q-80 52 -184 52q-158 0 -252.5 -114.5t-94.5 -320.5zM487 303q89 -80 220 -80q159 0 253.5 115t94.5 321q0 152 -54 254z" />
<glyph unicode="&#xd9;" horiz-adv-x="1370" d="M137 553v762h275l-2 -752q0 -188 63.5 -275t210.5 -87t210.5 87t63.5 275v752h273v-762q0 -291 -138 -442t-409 -152q-273 0 -410 152.5t-137 441.5zM379 1675l217 68l248 -281l-152 -63z" />
<glyph unicode="&#xda;" horiz-adv-x="1370" d="M137 553v762h275l-2 -752q0 -188 63.5 -275t210.5 -87t210.5 87t63.5 275v752h273v-762q0 -291 -138 -442t-409 -152q-273 0 -410 152.5t-137 441.5zM537 1462l245 281l219 -68l-313 -276z" />
<glyph unicode="&#xdb;" horiz-adv-x="1370" d="M137 553v762h275l-2 -752q0 -188 63.5 -275t210.5 -87t210.5 87t63.5 275v752h273v-762q0 -291 -138 -442t-409 -152q-273 0 -410 152.5t-137 441.5zM360 1458l213 246h224l204 -246l-176 -41l-141 148l-160 -148z" />
<glyph unicode="&#xdc;" horiz-adv-x="1370" d="M137 553v762h275l-2 -752q0 -188 63.5 -275t210.5 -87t210.5 87t63.5 275v752h273v-762q0 -291 -138 -442t-409 -152q-273 0 -410 152.5t-137 441.5zM356 1575q0 53 38 89t93 36q58 0 96 -36t38 -89q0 -56 -38 -92.5t-96 -36.5q-56 0 -93.5 37t-37.5 92zM754 1575 q0 52 37.5 88.5t91.5 36.5q58 0 95.5 -36t37.5 -89q0 -56 -37.5 -92.5t-95.5 -36.5q-54 0 -91.5 37t-37.5 92z" />
<glyph unicode="&#xdd;" horiz-adv-x="1210" d="M12 1315h312l200 -357l92 -174l93 174l202 357h289l-457 -787v-528h-272v528zM457 1462l245 281l220 -68l-314 -276z" />
<glyph unicode="&#xde;" horiz-adv-x="1226" d="M147 0v1313h275v-174h235q252 0 385.5 -118t133.5 -331t-133.5 -329.5t-387.5 -116.5h-233v-244h-275zM422 485h233q116 0 178 52t62 153q0 103 -62 155t-176 52h-235v-412z" />
<glyph unicode="&#xdf;" horiz-adv-x="1226" d="M119 0v948q0 117 36.5 206.5t102.5 143.5t151 80.5t187 26.5q203 2 337 -98t134 -273q0 -183 -160 -286q258 -96 258 -347q0 -139 -65.5 -236.5t-173.5 -142.5t-248 -45q-127 0 -207 33l27 213q64 -30 172 -30q110 0 171.5 53t61.5 164q0 208 -309 208v205q35 0 69.5 9.5 t67.5 30t53.5 59t20.5 90.5q0 75 -54.5 120t-154.5 44q-221 0 -221 -228v-948h-256z" />
<glyph unicode="&#xe0;" horiz-adv-x="1075" d="M59 270q0 139 97.5 214.5t289.5 99.5l230 28q-6 100 -45.5 151.5t-124.5 51.5q-149 0 -184 -147l-222 73q42 135 154.5 208t269.5 73q84 0 154 -20t129.5 -63.5t93 -123t33.5 -188.5v-449h117l-2 -178h-299l-13 135h-12q-42 -68 -128.5 -111.5t-201.5 -43.5 q-153 0 -244.5 78t-91.5 212zM219 1362l217 68l248 -281l-152 -64zM317 291q0 -54 34.5 -87.5t97.5 -33.5q87 0 158 59t71 156v61l-158 -16q-108 -11 -155.5 -41.5t-47.5 -97.5z" />
<glyph unicode="&#xe1;" horiz-adv-x="1075" d="M59 270q0 139 97.5 214.5t289.5 99.5l230 28q-6 100 -45.5 151.5t-124.5 51.5q-149 0 -184 -147l-222 73q42 135 154.5 208t269.5 73q84 0 154 -20t129.5 -63.5t93 -123t33.5 -188.5v-449h117l-2 -178h-299l-13 135h-12q-42 -68 -128.5 -111.5t-201.5 -43.5 q-153 0 -244.5 78t-91.5 212zM317 291q0 -54 34.5 -87.5t97.5 -33.5q87 0 158 59t71 156v61l-158 -16q-108 -11 -155.5 -41.5t-47.5 -97.5zM377 1149l246 281l219 -68l-314 -277z" />
<glyph unicode="&#xe2;" horiz-adv-x="1075" d="M59 270q0 139 97.5 214.5t289.5 99.5l230 28q-6 100 -45.5 151.5t-124.5 51.5q-149 0 -184 -147l-222 73q42 135 154.5 208t269.5 73q84 0 154 -20t129.5 -63.5t93 -123t33.5 -188.5v-449h117l-2 -178h-299l-13 135h-12q-42 -68 -128.5 -111.5t-201.5 -43.5 q-153 0 -244.5 78t-91.5 212zM201 1145l213 246h223l205 -246l-176 -41l-142 147l-159 -147zM317 291q0 -54 34.5 -87.5t97.5 -33.5q87 0 158 59t71 156v61l-158 -16q-108 -11 -155.5 -41.5t-47.5 -97.5z" />
<glyph unicode="&#xe3;" horiz-adv-x="1075" d="M59 270q0 139 97.5 214.5t289.5 99.5l230 28q-6 100 -45.5 151.5t-124.5 51.5q-149 0 -184 -147l-222 73q42 135 154.5 208t269.5 73q84 0 154 -20t129.5 -63.5t93 -123t33.5 -188.5v-449h117l-2 -178h-299l-13 135h-12q-42 -68 -128.5 -111.5t-201.5 -43.5 q-153 0 -244.5 78t-91.5 212zM180 1135q21 119 73 185t130 66q46 0 91.5 -24.5t86.5 -49t76 -24.5q38 0 66 24.5t42 69.5l123 -39q-40 -247 -200 -247q-46 0 -92 24t-87 48t-75 24q-80 0 -109 -94zM317 291q0 -54 34.5 -87.5t97.5 -33.5q87 0 158 59t71 156v61l-158 -16 q-108 -11 -155.5 -41.5t-47.5 -97.5z" />
<glyph unicode="&#xe4;" horiz-adv-x="1075" d="M59 270q0 139 97.5 214.5t289.5 99.5l230 28q-6 100 -45.5 151.5t-124.5 51.5q-149 0 -184 -147l-222 73q42 135 154.5 208t269.5 73q84 0 154 -20t129.5 -63.5t93 -123t33.5 -188.5v-449h117l-2 -178h-299l-13 135h-12q-42 -68 -128.5 -111.5t-201.5 -43.5 q-153 0 -244.5 78t-91.5 212zM197 1262q0 53 38 88.5t93 35.5q58 0 95.5 -35.5t37.5 -88.5q0 -56 -37.5 -92.5t-95.5 -36.5q-56 0 -93.5 37t-37.5 92zM317 291q0 -54 34.5 -87.5t97.5 -33.5q87 0 158 59t71 156v61l-158 -16q-108 -11 -155.5 -41.5t-47.5 -97.5zM594 1262 q0 52 37.5 88t91.5 36q58 0 95.5 -35.5t37.5 -88.5q0 -56 -37.5 -92.5t-95.5 -36.5q-54 0 -91.5 37t-37.5 92z" />
<glyph unicode="&#xe5;" horiz-adv-x="1075" d="M59 270q0 139 97.5 214.5t289.5 99.5l230 28q-6 100 -45.5 151.5t-124.5 51.5q-149 0 -184 -147l-222 73q42 135 154.5 208t269.5 73q84 0 154 -20t129.5 -63.5t93 -123t33.5 -188.5v-449h117l-2 -178h-299l-13 135h-12q-42 -68 -128.5 -111.5t-201.5 -43.5 q-153 0 -244.5 78t-91.5 212zM317 291q0 -54 34.5 -87.5t97.5 -33.5q87 0 158 59t71 156v61l-158 -16q-108 -11 -155.5 -41.5t-47.5 -97.5zM338 1268q0 74 52.5 126t137.5 52q86 0 139.5 -52t53.5 -126q0 -75 -53.5 -126.5t-139.5 -51.5t-138 51t-52 127zM467 1268 q0 -23 16.5 -38.5t44.5 -15.5q30 0 47 15.5t17 38.5q0 21 -17 36t-47 15q-28 0 -44.5 -15t-16.5 -36z" />
<glyph unicode="&#xe6;" horiz-adv-x="1714" d="M59 264q0 272 387 320l232 28q-6 104 -46 156.5t-130 52.5q-152 0 -193 -162l-223 78q45 137 157.5 211t282.5 74q225 0 310 -166h12q117 168 350 168q208 0 331.5 -134.5t121.5 -352.5v-82h-695q10 -122 76 -187t170 -65q72 0 129.5 38.5t79.5 112.5l225 -94 q-43 -126 -161.5 -204.5t-270.5 -78.5q-134 0 -232 56.5t-153 159.5h-26q-28 -44 -60 -78.5t-79.5 -67t-114.5 -50t-148 -17.5q-149 0 -240.5 78t-91.5 206zM317 291q0 -54 33.5 -87.5t102.5 -33.5q82 0 154.5 59t72.5 152v68l-160 -19q-108 -11 -155.5 -41.5t-47.5 -97.5z M965 621h426q-9 88 -64 140t-141 52q-84 0 -143 -51t-78 -141z" />
<glyph unicode="&#xe7;" horiz-adv-x="1081" d="M61 502q0 236 137.5 379t370.5 143q168 0 293 -89.5t156 -234.5l-234 -86q-17 89 -77.5 137t-139.5 48q-117 0 -179 -80t-62 -217q0 -139 62.5 -219t178.5 -80q80 0 141.5 48t75.5 136l234 -86q-26 -125 -122.5 -209t-233.5 -106l-187 -404l-219 125l201 281 q-182 34 -289 172.5t-107 341.5z" />
<glyph unicode="&#xe8;" horiz-adv-x="1079" d="M61 502q0 237 138.5 379.5t361.5 142.5q207 0 332 -136t123 -351v-82h-694q12 -122 75.5 -187t165.5 -65q73 0 132 38t85 115l209 -116q-48 -114 -161.5 -188.5t-262.5 -74.5q-222 0 -363 142.5t-141 382.5zM256 1364l217 68l248 -281l-152 -64zM328 621h428 q-9 89 -62.5 140.5t-144.5 51.5q-87 0 -144.5 -50.5t-76.5 -141.5z" />
<glyph unicode="&#xe9;" horiz-adv-x="1079" d="M61 502q0 237 138.5 379.5t361.5 142.5q207 0 332 -136t123 -351v-82h-694q12 -122 75.5 -187t165.5 -65q73 0 132 38t85 115l209 -116q-48 -114 -161.5 -188.5t-262.5 -74.5q-222 0 -363 142.5t-141 382.5zM328 621h428q-9 89 -62.5 140.5t-144.5 51.5 q-87 0 -144.5 -50.5t-76.5 -141.5zM414 1151l245 281l220 -68l-314 -277z" />
<glyph unicode="&#xea;" horiz-adv-x="1079" d="M61 502q0 237 138.5 379.5t361.5 142.5q207 0 332 -136t123 -351v-82h-694q12 -122 75.5 -187t165.5 -65q73 0 132 38t85 115l209 -116q-48 -114 -161.5 -188.5t-262.5 -74.5q-222 0 -363 142.5t-141 382.5zM238 1147l213 246h223l205 -246l-177 -41l-141 147l-160 -147z M328 621h428q-9 89 -62.5 140.5t-144.5 51.5q-87 0 -144.5 -50.5t-76.5 -141.5z" />
<glyph unicode="&#xeb;" horiz-adv-x="1079" d="M61 502q0 237 138.5 379.5t361.5 142.5q207 0 332 -136t123 -351v-82h-694q12 -122 75.5 -187t165.5 -65q73 0 132 38t85 115l209 -116q-48 -114 -161.5 -188.5t-262.5 -74.5q-222 0 -363 142.5t-141 382.5zM233 1264q0 53 38.5 89t93.5 36q58 0 95.5 -36t37.5 -89 q0 -56 -37.5 -92.5t-95.5 -36.5q-56 0 -94 37t-38 92zM328 621h428q-9 89 -62.5 140.5t-144.5 51.5q-87 0 -144.5 -50.5t-76.5 -141.5zM631 1264q0 52 37.5 88.5t91.5 36.5q58 0 95.5 -36t37.5 -89q0 -56 -37.5 -92.5t-95.5 -36.5q-54 0 -91.5 37t-37.5 92z" />
<glyph unicode="&#xec;" horiz-adv-x="493" d="M-61 1364l217 68l247 -281l-151 -64zM117 0v997h258v-997h-258z" />
<glyph unicode="&#xed;" horiz-adv-x="493" d="M96 1151l246 281l219 -68l-313 -277zM117 0v997h258v-997h-258z" />
<glyph unicode="&#xee;" horiz-adv-x="493" d="M-80 1147l213 246h223l205 -246l-176 -41l-141 147l-160 -147zM117 0v997h258v-997h-258z" />
<glyph unicode="&#xef;" horiz-adv-x="493" d="M-84 1264q0 53 38 89t93 36q58 0 95.5 -36t37.5 -89q0 -56 -37.5 -92.5t-95.5 -36.5q-56 0 -93.5 37t-37.5 92zM117 0v997h258v-997h-258zM313 1264q0 52 37.5 88.5t91.5 36.5q58 0 95.5 -36t37.5 -89q0 -56 -37.5 -92.5t-95.5 -36.5q-54 0 -91.5 37t-37.5 92z" />
<glyph unicode="&#xf0;" horiz-adv-x="1130" d="M61 479q0 225 129.5 360.5t325.5 135.5q103 0 195 -45q-57 101 -174 200l-146 -86l-69 91l118 69q-27 20 -137 90l227 144q80 -59 132 -103l155 90l68 -90l-137 -80q321 -324 321 -720v-19q0 -254 -138.5 -396.5t-365.5 -142.5q-223 0 -363.5 136.5t-140.5 365.5z M326 479q0 -131 62.5 -205.5t176.5 -74.5q117 0 179.5 74.5t62.5 205.5t-62.5 204t-179.5 73q-114 0 -176.5 -73.5t-62.5 -203.5z" />
<glyph unicode="&#xf1;" d="M123 0v997h237l9 -120h16q42 65 119 106t178 41q72 0 133 -19.5t112.5 -60.5t81 -114t29.5 -171v-659h-258v561q0 124 -42.5 178t-131.5 54q-107 0 -172 -78q-55 -71 -55 -234v-481h-256zM217 1159q21 119 73 185.5t130 66.5q46 0 91.5 -24.5t86.5 -49t76 -24.5 q38 0 66 24.5t42 69.5l123 -39q-19 -119 -69.5 -183.5t-130.5 -64.5q-37 0 -74 15t-62.5 33.5t-57.5 33.5t-60 15q-80 0 -109 -95z" />
<glyph unicode="&#xf2;" horiz-adv-x="1130" d="M61 502q0 239 140.5 380.5t363.5 141.5q224 0 364 -141t140 -381t-140 -382.5t-364 -142.5q-223 0 -363.5 142.5t-140.5 382.5zM258 1364l217 68l248 -281l-152 -64zM326 502q0 -141 62.5 -222t176.5 -81q117 0 179.5 80.5t62.5 222.5q0 141 -62.5 221t-179.5 80 q-114 0 -176.5 -80t-62.5 -221z" />
<glyph unicode="&#xf3;" horiz-adv-x="1130" d="M61 502q0 239 140.5 380.5t363.5 141.5q224 0 364 -141t140 -381t-140 -382.5t-364 -142.5q-223 0 -363.5 142.5t-140.5 382.5zM326 502q0 -141 62.5 -222t176.5 -81q117 0 179.5 80.5t62.5 222.5q0 141 -62.5 221t-179.5 80q-114 0 -176.5 -80t-62.5 -221zM416 1151 l246 281l219 -68l-314 -277z" />
<glyph unicode="&#xf4;" horiz-adv-x="1130" d="M61 502q0 239 140.5 380.5t363.5 141.5q224 0 364 -141t140 -381t-140 -382.5t-364 -142.5q-223 0 -363.5 142.5t-140.5 382.5zM240 1147l213 246h223l205 -246l-176 -41l-142 147l-160 -147zM326 502q0 -141 62.5 -222t176.5 -81q117 0 179.5 80.5t62.5 222.5 q0 141 -62.5 221t-179.5 80q-114 0 -176.5 -80t-62.5 -221z" />
<glyph unicode="&#xf5;" horiz-adv-x="1130" d="M61 502q0 239 140.5 380.5t363.5 141.5q224 0 364 -141t140 -381t-140 -382.5t-364 -142.5q-223 0 -363.5 142.5t-140.5 382.5zM219 1137q21 119 73 185.5t130 66.5q37 0 73.5 -15.5t62 -34t58 -34t60.5 -15.5q38 0 66 24.5t42 69.5l123 -38q-19 -119 -69.5 -183.5 t-130.5 -64.5q-46 0 -92 24t-87 48t-75 24q-80 0 -109 -94zM326 502q0 -141 62.5 -222t176.5 -81q117 0 179.5 80.5t62.5 222.5q0 141 -62.5 221t-179.5 80q-114 0 -176.5 -80t-62.5 -221z" />
<glyph unicode="&#xf6;" horiz-adv-x="1130" d="M61 502q0 239 140.5 380.5t363.5 141.5q224 0 364 -141t140 -381t-140 -382.5t-364 -142.5q-223 0 -363.5 142.5t-140.5 382.5zM236 1264q0 53 38 89t93 36q58 0 95.5 -36t37.5 -89q0 -56 -37.5 -92.5t-95.5 -36.5q-56 0 -93.5 37t-37.5 92zM326 502q0 -141 62.5 -222 t176.5 -81q117 0 179.5 80.5t62.5 222.5q0 141 -62.5 221t-179.5 80q-114 0 -176.5 -80t-62.5 -221zM633 1264q0 52 37.5 88.5t91.5 36.5q58 0 95.5 -36t37.5 -89q0 -56 -37.5 -92.5t-95.5 -36.5q-54 0 -91.5 37t-37.5 92z" />
<glyph unicode="&#xf7;" horiz-adv-x="1193" d="M127 571v197h940v-197h-940zM457 293q0 58 41 98.5t98 40.5q60 0 100.5 -40t40.5 -99t-40.5 -99t-100.5 -40q-57 0 -98 40.5t-41 98.5zM457 1049q0 57 41 97t98 40q60 0 100.5 -40t40.5 -97q0 -60 -40.5 -100t-100.5 -40q-58 0 -98.5 40.5t-40.5 99.5z" />
<glyph unicode="&#xf8;" horiz-adv-x="1228" d="M61 502q0 239 140.5 380.5t363.5 141.5q148 0 258 -61l56 65l127 -108l-54 -64q117 -139 117 -354q0 -240 -140 -382.5t-364 -142.5q-161 0 -286 80l-52 -61l-127 108l58 68q-97 137 -97 330zM326 502q0 -62 12 -115l334 395q-54 21 -107 21q-114 0 -176.5 -80 t-62.5 -221zM432 238q55 -39 133 -39q117 0 179.5 80.5t62.5 222.5q0 86 -25 153z" />
<glyph unicode="&#xf9;" d="M121 338v659h258v-561q0 -124 42.5 -177.5t131.5 -53.5q107 0 172 78q55 71 55 233v481h256v-997h-237l-8 121h-17q-42 -66 -119 -107t-178 -41q-72 0 -133 19.5t-112.5 60.5t-81 114t-29.5 171zM279 1364l217 68l247 -281l-151 -64z" />
<glyph unicode="&#xfa;" d="M121 338v659h258v-561q0 -124 42.5 -177.5t131.5 -53.5q107 0 172 78q55 71 55 233v481h256v-997h-237l-8 121h-17q-42 -66 -119 -107t-178 -41q-72 0 -133 19.5t-112.5 60.5t-81 114t-29.5 171zM436 1151l246 281l219 -68l-313 -277z" />
<glyph unicode="&#xfb;" d="M121 338v659h258v-561q0 -124 42.5 -177.5t131.5 -53.5q107 0 172 78q55 71 55 233v481h256v-997h-237l-8 121h-17q-42 -66 -119 -107t-178 -41q-72 0 -133 19.5t-112.5 60.5t-81 114t-29.5 171zM260 1147l213 246h223l205 -246l-176 -41l-141 147l-160 -147z" />
<glyph unicode="&#xfc;" d="M121 338v659h258v-561q0 -124 42.5 -177.5t131.5 -53.5q107 0 172 78q55 71 55 233v481h256v-997h-237l-8 121h-17q-42 -66 -119 -107t-178 -41q-72 0 -133 19.5t-112.5 60.5t-81 114t-29.5 171zM256 1264q0 53 38 89t93 36q58 0 95.5 -36t37.5 -89q0 -56 -37.5 -92.5 t-95.5 -36.5q-56 0 -93.5 37t-37.5 92zM653 1264q0 52 37.5 88.5t91.5 36.5q58 0 95.5 -36t37.5 -89q0 -56 -37.5 -92.5t-95.5 -36.5q-54 0 -91.5 37t-37.5 92z" />
<glyph unicode="&#xfd;" horiz-adv-x="1085" d="M29 997h295l229 -727l233 727h271l-142 -374l3 2l-379 -1010h-273l137 381zM395 1151l246 281l219 -68l-313 -277z" />
<glyph unicode="&#xfe;" horiz-adv-x="1187" d="M119 -383v1757l256 35v-518h16q90 133 283 133q91 0 173 -36.5t144 -102t98.5 -165t36.5 -218.5q0 -118 -36.5 -217.5t-99 -165.5t-144.5 -102.5t-174 -36.5q-193 0 -283 133h-14v-496h-256zM377 504q0 -147 68.5 -223t181.5 -76q109 0 173 77.5t64 219.5t-64 219.5 t-171 77.5q-113 0 -182.5 -75.5t-69.5 -219.5z" />
<glyph unicode="&#xff;" horiz-adv-x="1085" d="M29 997h295l229 -727l233 727h271l-142 -374l3 2l-379 -1010h-273l137 381zM215 1264q0 53 38 89t93 36q58 0 95.5 -36t37.5 -89q0 -56 -37.5 -92.5t-95.5 -36.5q-56 0 -93.5 37t-37.5 92zM612 1264q0 52 37.5 88.5t91.5 36.5q58 0 95.5 -36t37.5 -89q0 -56 -37.5 -92.5 t-95.5 -36.5q-54 0 -91.5 37t-37.5 92z" />
<glyph unicode="&#x152;" horiz-adv-x="2109" d="M82 659q0 158 50 288.5t136 215t199 130.5t240 46q249 0 391 -151v127h923v-238h-649v-303h572v-239h-572v-295h649v-240h-923v129q-142 -154 -391 -154q-128 0 -240.5 46t-198.5 131t-136 216t-50 291zM360 659q0 -206 94.5 -321t252.5 -115q157 0 252.5 115.5 t95.5 320.5t-95.5 320t-252.5 115q-158 0 -252.5 -114.5t-94.5 -320.5z" />
<glyph unicode="&#x153;" horiz-adv-x="1843" d="M61 502q0 233 140.5 377.5t363.5 144.5q123 0 218 -51.5t155 -143.5h18q60 92 155 143.5t216 51.5q208 0 331.5 -134.5t121.5 -352.5v-82h-695q10 -122 76.5 -187t169.5 -65q75 0 135.5 39t83.5 118l219 -81q-35 -133 -157 -217.5t-279 -84.5q-246 0 -375 189h-20 q-60 -90 -155 -139.5t-218 -49.5q-223 0 -363.5 146t-140.5 379zM317 502q0 -139 66 -219t180 -80q115 0 180.5 79.5t65.5 219.5q0 138 -65.5 217.5t-180.5 79.5q-114 0 -180 -79.5t-66 -217.5zM1094 621h428q-11 88 -66 140t-141 52q-83 0 -142.5 -51t-78.5 -141z" />
<glyph unicode="&#x178;" horiz-adv-x="1210" d="M12 1315h312l200 -357l92 -174l93 174l202 357h289l-457 -787v-528h-272v528zM276 1575q0 53 38.5 89t93.5 36q58 0 95.5 -36t37.5 -89q0 -56 -37.5 -92.5t-95.5 -36.5q-56 0 -94 37t-38 92zM674 1575q0 52 37.5 88.5t91.5 36.5q58 0 95.5 -36t37.5 -89 q0 -56 -37.5 -92.5t-95.5 -36.5q-54 0 -91.5 37t-37.5 92z" />
<glyph unicode="&#x2c6;" horiz-adv-x="921" d="M152 1473l225 266h244l229 -266h-201l-151 139l-142 -139h-204z" />
<glyph unicode="&#x2dc;" horiz-adv-x="825" d="M53 1491q21 119 73 185.5t130 66.5q46 0 91.5 -24.5t86.5 -49t76 -24.5q38 0 66 24.5t42 69.5l123 -39q-19 -119 -69.5 -183.5t-130.5 -64.5q-46 0 -92 24t-87 48t-75 24q-80 0 -109 -94z" />
<glyph unicode="&#x2000;" horiz-adv-x="891" />
<glyph unicode="&#x2001;" horiz-adv-x="1782" />
<glyph unicode="&#x2002;" horiz-adv-x="891" />
<glyph unicode="&#x2003;" horiz-adv-x="1782" />
<glyph unicode="&#x2004;" horiz-adv-x="594" />
<glyph unicode="&#x2005;" horiz-adv-x="445" />
<glyph unicode="&#x2006;" horiz-adv-x="297" />
<glyph unicode="&#x2007;" horiz-adv-x="297" />
<glyph unicode="&#x2008;" horiz-adv-x="222" />
<glyph unicode="&#x2009;" horiz-adv-x="356" />
<glyph unicode="&#x200a;" horiz-adv-x="99" />
<glyph unicode="&#x2010;" horiz-adv-x="681" d="M57 537v239h568v-239h-568z" />
<glyph unicode="&#x2011;" horiz-adv-x="681" d="M57 537v239h568v-239h-568z" />
<glyph unicode="&#x2012;" horiz-adv-x="681" d="M57 537v239h568v-239h-568z" />
<glyph unicode="&#x2013;" horiz-adv-x="821" d="M57 537v239h707v-239h-707z" />
<glyph unicode="&#x2014;" horiz-adv-x="1282" d="M57 537v239h1168v-239h-1168z" />
<glyph unicode="&#x2018;" horiz-adv-x="430" d="M57 944q0 181 195 397l90 -59q-100 -118 -137 -227h14q69 0 115.5 -41t46.5 -107q0 -72 -43.5 -115.5t-112.5 -43.5q-73 0 -120.5 49.5t-47.5 146.5z" />
<glyph unicode="&#x2019;" horiz-adv-x="430" d="M49 1184q0 72 43.5 115.5t112.5 43.5q73 0 120.5 -49.5t47.5 -146.5q0 -181 -195 -397l-90 59q100 118 137 227h-14q-69 0 -115.5 41t-46.5 107z" />
<glyph unicode="&#x201a;" horiz-adv-x="524" d="M104 147q0 65 44.5 111.5t115.5 46.5t116.5 -49.5t45.5 -130.5q0 -60 -15 -115.5t-49.5 -113.5t-60 -93.5t-76.5 -99.5l-96 66q86 112 131 217q-69 1 -112.5 48t-43.5 113z" />
<glyph unicode="&#x201c;" horiz-adv-x="831" d="M57 946q0 181 195 397l90 -59q-100 -118 -137 -227h14q69 0 115.5 -41t46.5 -107q0 -72 -43.5 -115.5t-112.5 -43.5q-73 0 -120.5 49.5t-47.5 146.5zM459 946q0 182 194 397l90 -59q-100 -118 -137 -227h15q69 0 115 -41t46 -107q0 -72 -43 -115.5t-112 -43.5 q-73 0 -120.5 49.5t-47.5 146.5z" />
<glyph unicode="&#x201d;" horiz-adv-x="831" d="M49 1184q0 72 43.5 115.5t112.5 43.5q73 0 120.5 -49.5t47.5 -146.5q0 -181 -195 -397l-90 59q100 118 137 227h-14q-69 0 -115.5 41t-46.5 107zM451 1184q0 72 43 115.5t112 43.5q73 0 120.5 -49.5t47.5 -146.5q0 -182 -194 -397l-91 59q102 119 138 227h-15 q-69 0 -115 41t-46 107z" />
<glyph unicode="&#x201e;" horiz-adv-x="860" d="M53 147q0 65 44.5 111.5t115.5 46.5t116.5 -49.5t45.5 -130.5q0 -60 -15 -115.5t-49.5 -113.5t-60 -93.5t-76.5 -99.5l-96 66q86 112 131 217q-69 1 -112.5 48t-43.5 113zM481 147q0 65 44.5 111.5t115.5 46.5t116.5 -49.5t45.5 -130.5q0 -60 -15 -115.5t-49.5 -113.5 t-60 -93.5t-76.5 -99.5l-96 66q86 112 131 217q-69 1 -112.5 48t-43.5 113z" />
<glyph unicode="&#x2022;" horiz-adv-x="706" d="M57 655q0 123 86.5 209t214.5 86q121 0 207 -86.5t86 -208.5q0 -121 -86 -209t-207 -88q-127 0 -214 87.5t-87 209.5z" />
<glyph unicode="&#x2026;" horiz-adv-x="1552" d="M98 147q0 69 43.5 115.5t118.5 46.5t119.5 -46.5t44.5 -115.5q0 -70 -44 -116.5t-120 -46.5q-75 0 -118.5 46.5t-43.5 116.5zM612 147q0 69 43.5 115.5t118.5 46.5t119.5 -46.5t44.5 -115.5q0 -70 -44 -116.5t-120 -46.5q-75 0 -118.5 46.5t-43.5 116.5zM1124 147 q0 69 43.5 115.5t118.5 46.5t119.5 -46.5t44.5 -115.5q0 -70 -44 -116.5t-120 -46.5q-75 0 -118.5 46.5t-43.5 116.5z" />
<glyph unicode="&#x202f;" horiz-adv-x="356" />
<glyph unicode="&#x2039;" horiz-adv-x="604" d="M61 645l215 354h246l-211 -350l211 -350h-250z" />
<glyph unicode="&#x203a;" horiz-adv-x="604" d="M82 299l211 350l-211 350h246l215 -354l-211 -346h-250z" />
<glyph unicode="&#x205f;" horiz-adv-x="445" />
<glyph unicode="&#x20ac;" horiz-adv-x="1312" d="M51 532h92q-2 18 -2 60q0 41 2 61h-86l-2 158h117q57 186 204 288.5t335 102.5q208 0 343 -100t177 -271l-246 -98q-20 109 -92.5 170.5t-181.5 61.5q-86 0 -150.5 -39.5t-101.5 -114.5h297l2 -158h-342q-2 -20 -2 -61q0 -42 2 -60h350l4 -157h-313q37 -77 102.5 -118.5 t151.5 -41.5q108 0 181 60.5t95 168.5l244 -94q-42 -171 -178 -272t-342 -101q-190 0 -337 104t-204 294h-115z" />
<glyph unicode="&#x2122;" horiz-adv-x="1767" d="M41 1128v189h633v-189h-215v-565h-203v565h-215zM766 563v754h233l197 -332l201 332h221v-754h-203v250l2 152l-180 -269h-86l-184 267l2 -150v-250h-203z" />
<glyph unicode="&#x25fc;" horiz-adv-x="993" d="M0 0v993h993v-993h-993z" />
</font>
</defs>
</svg>
