<?xml version="1.0" standalone="no"?>
<!DOCTYPE svg PUBLIC "-//W3C//DTD SVG 1.1//EN" "http://www.w3.org/Graphics/SVG/1.1/DTD/svg11.dtd" >
<svg xmlns="http://www.w3.org/2000/svg" xmlns:xlink="http://www.w3.org/1999/xlink" version="1.1">
<metadata></metadata>
<defs>
<font id="baxter_sansbold" horiz-adv-x="1146" >
<font-face units-per-em="2048" ascent="1559" descent="-489" />
<missing-glyph horiz-adv-x="423" />
<glyph horiz-adv-x="0" />
<glyph horiz-adv-x="682" />
<glyph unicode="&#xd;" horiz-adv-x="1228" />
<glyph unicode=" "  horiz-adv-x="423" />
<glyph unicode="&#x09;" horiz-adv-x="423" />
<glyph unicode="&#xa0;" horiz-adv-x="423" />
<glyph unicode="!" horiz-adv-x="518" d="M117 129q0 61 39 102t106 41t106.5 -41t39.5 -102q0 -63 -39.5 -105t-106.5 -42t-106 41.5t-39 105.5zM152 1309h231l-18 -856h-197z" />
<glyph unicode="&#x22;" horiz-adv-x="647" d="M84 1358h186l-22 -449h-142zM371 1358h186l-22 -449h-142z" />
<glyph unicode="#" horiz-adv-x="1329" d="M37 305v215h225l72 266h-191v215h248l82 308h250l-82 -308h264l82 308h250l-82 -308h168v-215h-227l-72 -266h193v-215h-250l-82 -305h-248l82 305h-266l-82 -305h-248l82 305h-168zM510 520h266l72 266h-266z" />
<glyph unicode="$" horiz-adv-x="1105" d="M70 299l194 121q85 -199 291 -199q93 0 152 43t59 115q0 73 -64.5 115.5t-226.5 93.5q-183 59 -270.5 147t-87.5 230q0 139 99.5 235t258.5 115l2 174h191v-184q112 -25 194 -93t117 -165l-205 -103q-24 72 -86.5 117t-148.5 45q-89 0 -137 -37.5t-48 -97.5 q0 -31 13 -56.5t32.5 -43.5t56 -36t70.5 -30.5t90 -30.5q192 -62 290 -146.5t98 -221.5q0 -150 -93 -253t-249 -133v-153h-193l2 147q-283 27 -401 285z" />
<glyph unicode="%" horiz-adv-x="1445" d="M68 1090q0 126 87.5 215.5t213.5 89.5q129 0 218 -89.5t89 -215.5q0 -128 -89 -216t-218 -88q-126 0 -213.5 88.5t-87.5 215.5zM205 8l891 1368h145l-893 -1368h-143zM215 1090q0 -64 46 -110t108 -46q66 0 112.5 45.5t46.5 110.5q0 66 -46.5 112.5t-112.5 46.5 q-62 0 -108 -47t-46 -112zM768 295q0 126 89.5 212.5t217.5 86.5q125 0 213 -87t88 -212q0 -127 -88 -217t-213 -90q-127 0 -217 90t-90 217zM915 295q0 -67 47 -113.5t113 -46.5q65 0 109.5 46.5t44.5 113.5q0 65 -44.5 109.5t-109.5 44.5q-66 0 -113 -45t-47 -109z" />
<glyph unicode="&#x26;" horiz-adv-x="1318" d="M68 387q0 254 305 367q-99 138 -99 254q0 139 104 234t259 95q154 0 256 -80t102 -235q0 -114 -85 -195t-226 -125l248 -301q52 119 65 306h201q-18 -284 -137 -459q34 -33 71 -46.5t93 -13.5l2 -206q-96 0 -170.5 26.5t-143.5 95.5q-146 -137 -360 -137 q-135 0 -245.5 53t-175 149.5t-64.5 217.5zM299 397q0 -99 71 -164t187 -65q136 0 229 84l-315 377l-4 4q-168 -68 -168 -236zM498 1014q0 -41 20 -84.5t68 -110.5q84 29 140 81t56 122q0 57 -40 96t-103 39t-102 -42t-39 -101z" />
<glyph unicode="'" horiz-adv-x="368" d="M84 1358h190l-22 -449h-146z" />
<glyph unicode="(" horiz-adv-x="581" d="M127 649q0 240 51 453t164 434l188 -80q-99 -200 -143.5 -394t-44.5 -413t44.5 -413t143.5 -394l-188 -80q-113 221 -164 434t-51 453z" />
<glyph unicode=")" horiz-adv-x="581" d="M51 -158q99 201 144 395t45 412t-45 412t-144 395l189 80q113 -221 164 -434t51 -453t-51 -453t-164 -434z" />
<glyph unicode="*" horiz-adv-x="593" d="M16 1137l60 155l170 -71l-17 194h187l-15 -194l168 71l58 -151l-189 -49l133 -156l-153 -92l-94 151l-97 -151l-149 92l127 154z" />
<glyph unicode="+" horiz-adv-x="1181" d="M131 578v178h371v372h178v-372h369v-178h-369v-369h-178v369h-371z" />
<glyph unicode="," horiz-adv-x="507" d="M106 131q0 59 40 101t104 42t105.5 -45t41.5 -120v-3v-2q-1 -75 -32.5 -152.5t-66.5 -127t-93 -119.5l-86 57q93 121 135 226h-2q-63 0 -104.5 41.5t-41.5 101.5z" />
<glyph unicode="-" horiz-adv-x="681" d="M57 543v215h568v-215h-568z" />
<glyph unicode="." horiz-adv-x="505" d="M98 135q0 62 41 105t109 43t108.5 -43t40.5 -105q0 -65 -40 -108t-109 -43t-109.5 43t-40.5 108z" />
<glyph unicode="/" horiz-adv-x="604" d="M0 0l350 1309h250l-352 -1309h-248z" />
<glyph unicode="0" horiz-adv-x="1286" d="M90 594q0 273 154.5 440.5t398.5 167.5q242 0 397.5 -168t155.5 -440q0 -278 -155.5 -448.5t-397.5 -170.5q-244 0 -398.5 170t-154.5 449zM330 594q0 -191 84.5 -297.5t228.5 -106.5q145 0 230 106.5t85 297.5q0 187 -85 291t-230 104q-144 0 -228.5 -104t-84.5 -291z " />
<glyph unicode="1" horiz-adv-x="780" d="M74 952v211h508v-1163h-236v952h-272z" />
<glyph unicode="2" horiz-adv-x="1142" d="M94 0l2 53q4 83 43.5 153t99 118.5t130.5 91t141 82t128 81t94 97t36 121.5q0 91 -58 146.5t-157 55.5q-92 0 -152 -57t-75 -156l-209 48q22 170 141.5 269t302.5 99q196 0 317 -110t121 -289q0 -93 -35.5 -169.5t-89 -125.5t-122.5 -94t-132 -76t-121 -69.5t-85 -75.5 l628 10v-203h-948z" />
<glyph unicode="3" horiz-adv-x="1144" d="M76 166l219 74q27 -102 90.5 -148.5t169.5 -46.5q109 0 174.5 49.5t65.5 147.5q0 103 -83 150.5t-268 47.5v187q62 0 114 10t96 31.5t69 61t25 93.5q0 82 -55.5 128t-147.5 46q-78 0 -137 -43t-80 -120l-207 65q32 131 148 217t288 86q187 0 308.5 -98t121.5 -262 q0 -196 -196 -295q241 -83 241 -311q0 -126 -65.5 -217.5t-173.5 -136t-244 -44.5q-181 0 -308 85.5t-165 242.5z" />
<glyph unicode="4" horiz-adv-x="1161" d="M70 219l436 955h252l-400 -877h369v399h231v-399h166v-203h-166v-266h-231v266h-625z" />
<glyph unicode="5" horiz-adv-x="1128" d="M102 180l215 68q30 -104 89.5 -159.5t162.5 -55.5q115 0 179.5 71t64.5 199q0 121 -69.5 194.5t-180.5 73.5q-75 0 -132 -37t-89 -98l-197 53l5 3l-15 2l80 680h774v-203h-592l-30 -275q95 70 229 70q199 0 327 -122t128 -339q0 -212 -135.5 -341.5t-342.5 -129.5 q-191 0 -313 92.5t-158 253.5z" />
<glyph unicode="6" horiz-adv-x="1126" d="M82 614q0 344 135.5 532.5t386.5 188.5q159 0 269.5 -75.5t152.5 -182.5l-197 -106q-30 73 -92 117.5t-141 44.5q-129 0 -196.5 -94.5t-82.5 -284.5q111 115 285 112q200 -2 326.5 -116.5t126.5 -313.5q0 -204 -132.5 -331.5t-334.5 -127.5q-237 0 -371.5 162t-134.5 475 zM334 420q0 -100 64 -171t180 -71q111 0 177 69t66 173q0 112 -66 181t-180 69q-118 0 -179.5 -68t-61.5 -182z" />
<glyph unicode="7" horiz-adv-x="1024" d="M72 961v202h891v-176q-401 -553 -519 -1139h-235q124 614 493 1113h-630z" />
<glyph unicode="8" horiz-adv-x="1134" d="M74 373q0 111 56.5 191.5t160.5 125.5q-84 43 -131 115.5t-47 163.5q0 160 121.5 263t330.5 103q211 0 333 -103t122 -263q0 -90 -47 -162t-131 -117q106 -45 162.5 -125.5t56.5 -191.5q0 -173 -141 -283t-355 -110q-211 0 -351 110t-140 283zM313 377q0 -92 64.5 -149.5 t187.5 -57.5q124 0 190 57.5t66 149.5q0 91 -66 150t-190 59q-122 0 -187 -59t-65 -150zM352 969q0 -75 56.5 -131t156.5 -56q101 0 159 56t58 131q0 85 -56 135.5t-161 50.5q-103 0 -158 -50t-55 -136z" />
<glyph unicode="9" horiz-adv-x="1150" d="M96 745q0 204 132.5 331.5t334.5 127.5q237 0 371.5 -162t134.5 -475q0 -344 -135.5 -532.5t-386.5 -188.5q-159 0 -269.5 75.5t-152.5 182.5l197 107q30 -73 92 -117.5t141 -44.5q129 0 196.5 94.5t82.5 284.5q-112 -116 -285 -113q-200 2 -326.5 116.5t-126.5 313.5z M330 762q0 -112 65.5 -181t179.5 -69q118 0 180 68t62 182q0 100 -64 171t-180 71q-111 0 -177 -69t-66 -173z" />
<glyph unicode=":" horiz-adv-x="651" d="M174 135q0 62 41 105t109 43t108.5 -43t40.5 -105q0 -65 -40 -108t-109 -43t-109.5 43t-40.5 108zM174 825q0 62 41 105t109 43t108.5 -43t40.5 -105q0 -65 -40 -108t-109 -43t-109.5 43t-40.5 108z" />
<glyph unicode=";" horiz-adv-x="651" d="M174 825q0 62 41 105t109 43t108.5 -43t40.5 -105q0 -65 -40 -108t-109 -43t-109.5 43t-40.5 108zM182 131q0 59 40 101t104 42t105.5 -45t41.5 -120v-3v-2q-1 -75 -32.5 -152.5t-66.5 -127t-93 -119.5l-86 57q93 121 135 226h-2q-63 0 -104.5 41.5t-41.5 101.5z" />
<glyph unicode="&#x3c;" horiz-adv-x="915" d="M104 512v211l619 301l70 -162l-517 -246l517 -245l-70 -162z" />
<glyph unicode="=" horiz-adv-x="1210" d="M145 393v172h920v-172h-920zM145 760v176h920v-176h-920z" />
<glyph unicode="&#x3e;" horiz-adv-x="915" d="M123 371l516 245l-516 246l70 162l618 -301v-211l-618 -303z" />
<glyph unicode="?" horiz-adv-x="989" d="M51 981q20 159 137 255.5t291 96.5q187 0 309.5 -108t122.5 -291q0 -166 -93 -264.5t-245 -126.5v-127h-206v291h59q270 3 270 227q0 101 -61.5 156t-161.5 55q-189 0 -231 -215zM324 129q0 61 39 102t106 41t106 -41t39 -102q0 -64 -39 -105.5t-106 -41.5t-106 41.5 t-39 105.5z" />
<glyph unicode="@" horiz-adv-x="1882" d="M86 424q0 186 71 351.5t192 282.5t289.5 185t356.5 68q171 0 320 -55.5t254.5 -152t166 -232.5t60.5 -293q0 -153 -58 -282.5t-157.5 -204.5t-216.5 -75q-97 0 -160.5 48t-81.5 126q-52 -72 -140.5 -114.5t-182.5 -42.5q-148 0 -243 108t-95 275q0 140 59.5 260.5 t165.5 192t234 71.5q79 0 143.5 -31.5t103.5 -87.5l17 103h184l-86 -609q-2 -12 -2 -39q0 -96 90 -96q93 0 166.5 117t73.5 281q0 255 -172.5 416t-442.5 161q-151 0 -285 -55.5t-230 -151.5t-152 -232t-56 -292q0 -287 171.5 -454t476.5 -171q152 -3 301 43l-29 -180 q-118 -33 -242 -33q-257 0 -453.5 98.5t-303.5 279t-107 417.5zM647 436q0 -106 55 -174.5t140 -68.5q81 0 147 49.5t102.5 130t36.5 172.5q0 107 -54.5 171t-145.5 64q-118 0 -199.5 -98.5t-81.5 -245.5z" />
<glyph unicode="A" horiz-adv-x="1325" d="M31 0l495 1311h279l489 -1311h-282l-94 274h-527l-94 -274h-266zM455 461h399l-199 583z" />
<glyph unicode="B" horiz-adv-x="1257" d="M152 0v1309h532q215 0 323.5 -91.5t108.5 -256.5q0 -86 -48 -161t-124 -116q105 -32 172.5 -109.5t67.5 -199.5q0 -180 -116.5 -277.5t-346.5 -97.5h-569zM397 193h258q153 0 216 46t63 144q0 99 -68.5 145.5t-210.5 46.5h-258v-382zM397 766h240q120 1 173.5 46 t53.5 130q0 89 -52.5 131.5t-174.5 42.5h-240v-350z" />
<glyph unicode="C" horiz-adv-x="1353" d="M86 657q0 156 48.5 285t132 213.5t195 131t238.5 46.5q223 0 371 -111t195 -298l-226 -90q-28 132 -116.5 205t-223.5 73q-167 0 -265.5 -119.5t-98.5 -337.5q0 -215 99 -336.5t265 -121.5q134 0 223 73.5t117 204.5l226 -88q-47 -187 -195 -299.5t-371 -112.5 q-127 0 -238.5 46.5t-195 132t-132 215.5t-48.5 288z" />
<glyph unicode="D" horiz-adv-x="1366" d="M152 0v1309h417q356 0 534.5 -170.5t178.5 -479.5q0 -313 -179 -486t-534 -173h-417zM397 209h172q251 0 360 111t109 339q0 226 -107.5 334.5t-361.5 108.5h-172v-893z" />
<glyph unicode="E" d="M152 0v1311h905v-215h-660v-334h582v-215h-582v-332h660v-215h-905z" />
<glyph unicode="F" horiz-adv-x="1081" d="M152 0v1311h852v-217h-607v-400h535v-215h-535v-479h-245z" />
<glyph unicode="G" horiz-adv-x="1419" d="M86 657q0 156 49 284.5t134 213.5t199.5 131.5t246.5 46.5q205 0 355.5 -104t203.5 -283l-221 -102q-30 128 -119.5 198t-218.5 70q-172 0 -275.5 -120t-103.5 -337q0 -214 102.5 -336t268.5 -122q128 0 217.5 66t122.5 192h-224v200h480v-655h-158l-25 186 q-65 -99 -170.5 -155t-242.5 -56q-129 0 -242 46.5t-197.5 132t-133 215.5t-48.5 288z" />
<glyph unicode="H" horiz-adv-x="1388" d="M152 0v1309h245v-564h592v564h246v-1309h-246v530h-592v-530h-245z" />
<glyph unicode="I" horiz-adv-x="550" d="M152 0v1309h245v-1309h-245z" />
<glyph unicode="J" horiz-adv-x="843" d="M47 213q69 -16 168 -16q129 0 183.5 87.5t54.5 280.5v744h243v-783q0 -280 -115.5 -414.5t-361.5 -134.5q-89 0 -162 15z" />
<glyph unicode="K" horiz-adv-x="1298" d="M152 0v1309h245v-600l551 600h303l-506 -551l545 -758h-297l-422 588l-174 -193v-395h-245z" />
<glyph unicode="L" horiz-adv-x="1079" d="M152 0v1309h245v-1094h623v-215h-868z" />
<glyph unicode="M" horiz-adv-x="1675" d="M152 0v1311h237l457 -815l461 815h217v-1311h-246v365l8 450l-379 -635h-135l-381 641l6 -456v-365h-245z" />
<glyph unicode="N" horiz-adv-x="1392" d="M152 0v1311h239l613 -885l-9 285v600h246v-1311h-229l-621 891l6 -293v-598h-245z" />
<glyph unicode="O" horiz-adv-x="1402" d="M86 657q0 156 48.5 285t132 213.5t195 131t238.5 46.5t239 -46.5t196 -131t133 -213.5t49 -285q0 -158 -49 -288t-133 -215.5t-196 -132t-239 -46.5t-238.5 46.5t-195 132t-132 215.5t-48.5 288zM336 657q0 -217 98.5 -338.5t265.5 -121.5q168 0 267.5 121.5t99.5 338.5 q0 216 -99 335.5t-268 119.5q-167 0 -265.5 -119.5t-98.5 -335.5z" />
<glyph unicode="P" horiz-adv-x="1220" d="M152 0v1311h497q246 0 375 -113t129 -321q0 -206 -129 -318.5t-377 -112.5h-250v-446h-245zM397 662h250q256 0 256 215q0 217 -254 217h-252v-432z" />
<glyph unicode="Q" horiz-adv-x="1402" d="M86 657q0 156 48.5 285t132 213.5t195 131t238.5 46.5t239 -46.5t196 -131t133 -213.5t49 -285q0 -281 -144 -459.5t-370 -213.5q9 -83 58 -117.5t155 -34.5h108v-215h-104q-201 0 -293.5 91t-103.5 272q-114 14 -211 66t-170 136.5t-114.5 207t-41.5 267.5zM336 657 q0 -217 98.5 -338.5t265.5 -121.5q168 0 267.5 121.5t99.5 338.5q0 216 -99 335.5t-268 119.5q-167 0 -265.5 -119.5t-98.5 -335.5z" />
<glyph unicode="R" horiz-adv-x="1259" d="M152 0v1311h505q240 0 373 -113t133 -313q0 -147 -74.5 -247.5t-214.5 -143.5l5 -7l311 -487h-277l-288 463h-228v-463h-245zM397 678h260q127 0 194 52.5t67 154.5q0 103 -67 156t-194 53h-260v-416z" />
<glyph unicode="S" horiz-adv-x="1087" d="M57 274l201 123q88 -204 301 -204q96 0 157.5 44t61.5 119t-65.5 118t-235.5 99q-189 60 -280 151.5t-91 238.5q0 159 125 262.5t316 103.5q163 0 283.5 -75.5t168.5 -204.5l-211 -107q-27 75 -92 121.5t-153 46.5q-92 0 -141.5 -39t-49.5 -102q0 -33 13.5 -59 t33.5 -44.5t59 -37.5t72.5 -31t92.5 -31q200 -65 300.5 -152.5t100.5 -230.5q0 -185 -132 -296.5t-343 -111.5q-354 0 -492 299z" />
<glyph unicode="T" d="M41 1094v215h1065v-215h-410v-1094h-245v1094h-410z" />
<glyph unicode="U" horiz-adv-x="1351" d="M141 539v770h246v-764q0 -189 66.5 -278t222.5 -89q155 0 222 89t67 278v764h245v-770q0 -282 -135 -430t-399 -148q-267 0 -401 148.5t-134 429.5z" />
<glyph unicode="V" horiz-adv-x="1327" d="M33 1309h291l350 -1006l350 1006h270l-508 -1309h-249z" />
<glyph unicode="W" horiz-adv-x="1978" d="M29 1309h276l266 -959l289 959h252l295 -959l270 959h271l-400 -1309h-264l-301 979l-291 -979h-262z" />
<glyph unicode="X" horiz-adv-x="1234" d="M16 0l430 657l-419 654h286l308 -480l305 480h286l-419 -652l426 -659h-291l-310 485l-313 -485h-289z" />
<glyph unicode="Y" horiz-adv-x="1177" d="M16 1309h281l199 -351l102 -192l100 192l201 351h262l-448 -779v-530h-246v528z" />
<glyph unicode="Z" horiz-adv-x="1185" d="M102 0v203l594 772l99 121h-693v213h981v-205l-610 -793l-78 -98h688v-213h-981z" />
<glyph unicode="[" horiz-adv-x="598" d="M176 -186v1667h356v-183h-145v-1302h145v-182h-356z" />
<glyph unicode="\" horiz-adv-x="841" d="M10 1309h250l350 -1309h-248z" />
<glyph unicode="]" horiz-adv-x="598" d="M66 -4h145v1302h-145v183h356v-1667h-356v182z" />
<glyph unicode="^" horiz-adv-x="1306" d="M143 870l389 455h230l401 -455h-182l-334 344l-321 -344h-183z" />
<glyph unicode="_" horiz-adv-x="1134" d="M0 -117h1135v-159h-1135v159z" />
<glyph unicode="`" horiz-adv-x="718" d="M483 1700l187 74l250 -273l-132 -63z" />
<glyph unicode="a" horiz-adv-x="1069" d="M66 270q0 134 94.5 208.5t281.5 99.5l246 30q-5 111 -47 168.5t-135 57.5q-156 0 -203 -154l-194 70q43 130 150 201t261 71q83 0 151.5 -19.5t126 -62.5t90 -121.5t32.5 -187.5v-469h116v-162h-286l-13 139h-10q-42 -70 -129 -114.5t-199 -44.5q-151 0 -242 77t-91 213z M297 283q0 -58 38.5 -92.5t106.5 -34.5q96 0 172 62.5t76 168.5v68l-182 -21q-113 -14 -162 -47.5t-49 -103.5z" />
<glyph unicode="b" horiz-adv-x="1181" d="M125 0v1374l231 31v-520h17q96 139 295 139q121 0 222 -61.5t163.5 -182t62.5 -278.5q0 -157 -62.5 -277.5t-164 -182.5t-223.5 -62q-200 0 -295 141h-15v-121h-231zM358 504q0 -158 73 -240t196 -82q117 0 185.5 83.5t68.5 236.5t-68 236t-184 83q-123 0 -197 -81 t-74 -236z" />
<glyph unicode="c" horiz-adv-x="1075" d="M68 502q0 236 134.5 379t362.5 143q163 0 287 -88t156 -231l-209 -78q-19 92 -86 143t-148 51q-126 0 -195 -85.5t-69 -233.5q0 -150 70 -236t194 -86q81 0 148 51.5t86 145.5l209 -80q-32 -143 -156 -231.5t-287 -88.5q-224 0 -360.5 144.5t-136.5 380.5z" />
<glyph unicode="d" horiz-adv-x="1181" d="M68 502q0 158 62.5 278.5t163.5 182t222 61.5q199 0 295 -139h14v489l232 31v-1405h-232v121h-12q-95 -141 -295 -141q-122 0 -223.5 62t-164 182.5t-62.5 277.5zM303 502q0 -153 68.5 -236.5t185.5 -83.5q123 0 195.5 82t72.5 240q0 155 -73.5 236t-196.5 81 q-116 0 -184 -83t-68 -236z" />
<glyph unicode="e" horiz-adv-x="1071" d="M68 502q0 233 135.5 377.5t353.5 144.5q207 0 327 -139q118 -136 117 -343v-10v-69h-700q10 -135 80 -209t178 -74q79 0 141 41t91 125l186 -104q-43 -113 -156 -189t-260 -76q-218 0 -355.5 142.5t-137.5 382.5zM307 621h461q-9 97 -66.5 153.5t-154.5 56.5 q-94 0 -157.5 -55.5t-82.5 -154.5z" />
<glyph unicode="f" horiz-adv-x="724" d="M47 811v186h158v31q0 87 22.5 155.5t59 111t87.5 70.5t102 39t108 11q87 0 153 -16v-209q-63 18 -127 18q-176 0 -176 -204v-7h258v-186h-258v-811h-229v811h-158z" />
<glyph unicode="g" horiz-adv-x="1185" d="M68 508q0 234 127 375t321 141q205 0 301 -139h25l8 108h211v-848q0 -261 -139 -397.5t-387 -136.5q-146 0 -265.5 57t-189.5 158l145 141q42 -67 121 -113.5t174 -46.5q153 0 232 80.5t79 233.5v8h-16q-94 -137 -297 -137q-200 0 -325 140.5t-125 375.5zM303 508 q0 -154 67 -237t187 -83q126 0 199 82t73 240q0 155 -74 236t-200 81q-117 0 -184.5 -83t-67.5 -236z" />
<glyph unicode="h" d="M129 0v1374l231 31v-533h9q42 67 120 109.5t177 42.5q73 0 134.5 -19.5t112 -60.5t79 -114t28.5 -171v-659h-232v578q0 127 -45 182t-139 55q-114 0 -186 -84q-58 -67 -58 -227v-504h-231z" />
<glyph unicode="i" horiz-adv-x="481" d="M94 1294q0 64 42 105t106 41q61 0 102 -41t41 -105q0 -63 -41 -103t-102 -40q-63 0 -105.5 40t-42.5 103zM125 0v997h231v-997h-231z" />
<glyph unicode="j" horiz-adv-x="483" d="M-176 -156q63 -18 127 -18q86 0 131 52t45 153v119h-2v843h231v-987q0 -87 -22.5 -155.5t-59 -111t-87.5 -70.5t-102 -39t-108 -11q-87 0 -153 16v209zM94 1294q0 64 42 105t106 41q61 0 102 -41t41 -105q0 -63 -41 -103t-102 -40q-63 0 -105.5 40t-42.5 103z" />
<glyph unicode="k" horiz-adv-x="1073" d="M125 0v1374l231 31v-805l389 397h291l-399 -387l434 -610h-268l-326 455l-121 -115v-340h-231z" />
<glyph unicode="l" horiz-adv-x="481" d="M125 0v1374l231 31v-1405h-231z" />
<glyph unicode="m" horiz-adv-x="1738" d="M129 0v997h213l8 -125h19q42 68 115.5 110t164.5 42q101 0 181 -39.5t120 -128.5h15q44 74 125.5 121t185.5 47q67 0 124 -17.5t106.5 -56t77.5 -109.5t28 -169v-672h-230v592q0 225 -170 225q-106 0 -166.5 -79.5t-60.5 -209.5v-528h-229v592q0 225 -168 225 q-110 0 -169 -81t-59 -208v-528h-231z" />
<glyph unicode="n" d="M129 0v997h213l8 -125h19q42 67 120 109.5t177 42.5q73 0 134.5 -19.5t112 -60.5t79 -114t28.5 -171v-659h-232v578q0 127 -45 182t-139 55q-114 0 -186 -84q-58 -67 -58 -227v-504h-231z" />
<glyph unicode="o" horiz-adv-x="1124" d="M68 502q0 239 137 380.5t356 141.5q222 0 359 -141.5t137 -380.5q0 -238 -137.5 -381.5t-358.5 -143.5q-219 0 -356 144t-137 381zM301 502q0 -151 69.5 -237.5t190.5 -86.5q124 0 193 86t69 238t-69 236.5t-193 84.5q-122 0 -191 -84.5t-69 -236.5z" />
<glyph unicode="p" horiz-adv-x="1185" d="M129 -377v1374h231v-112h15q96 139 295 139q121 0 222 -61.5t163.5 -182t62.5 -278.5q0 -157 -62.5 -277.5t-164 -182.5t-223.5 -62q-200 0 -295 141h-13v-498h-231zM360 504q0 -158 73 -240t196 -82q117 0 185.5 83.5t68.5 236.5t-68 236t-184 83q-123 0 -197 -81 t-74 -236z" />
<glyph unicode="q" horiz-adv-x="1185" d="M68 502q0 158 62.5 278.5t163.5 182t222 61.5q199 0 295 -139h14v112h232v-1374h-232v498h-12q-95 -141 -295 -141q-122 0 -223.5 62t-164 182.5t-62.5 277.5zM303 502q0 -153 68.5 -236.5t185.5 -83.5q123 0 195.5 82t72.5 240q0 155 -73.5 236t-196.5 81 q-116 0 -184 -83t-68 -236z" />
<glyph unicode="r" horiz-adv-x="712" d="M129 0v993h213l10 -153h17q37 83 109 133.5t155 50.5q29 0 69 -10l-18 -226q-26 13 -84 13q-103 0 -171.5 -66.5t-68.5 -187.5v-547h-231z" />
<glyph unicode="s" horiz-adv-x="935" d="M59 160l107 164q39 -64 123 -109t182 -45q77 0 120.5 28.5t43.5 80.5q0 50 -48 80.5t-155 56.5q-76 19 -134 43.5t-107 60.5t-75 88t-26 117q0 137 103 218t274 81q114 0 214 -40.5t171 -111.5l-104 -165q-48 55 -127.5 92t-159.5 37q-66 0 -105 -27.5t-39 -69.5 q0 -27 15 -47.5t50 -36.5t64 -25t86 -24q58 -15 103.5 -32t90 -43t73.5 -57.5t47 -75.5t18 -97q0 -145 -109 -234.5t-288 -89.5q-262 0 -408 183z" />
<glyph unicode="t" horiz-adv-x="733" d="M31 809v186l125 2v248l229 29v-277h262v-186h-260v-414q0 -204 176 -204q64 0 127 18v-209q-66 -16 -153 -16q-57 0 -108 11t-102 39t-87.5 70.5t-59 111t-22.5 155.5v436h-127z" />
<glyph unicode="u" d="M129 338v659h231v-577q0 -127 45.5 -182.5t139.5 -55.5q114 0 186 84q57 66 57 228v503h232v-997h-213l-8 125h-19q-42 -67 -120 -109.5t-177 -42.5q-73 0 -134.5 19.5t-112 60.5t-79 114t-28.5 171z" />
<glyph unicode="v" horiz-adv-x="1067" d="M33 997h264l248 -751l250 751h241l-377 -997h-249z" />
<glyph unicode="w" horiz-adv-x="1603" d="M33 997h243l218 -680l190 680h238l192 -675l217 675h240l-350 -997h-207l-211 721l-211 -721h-207z" />
<glyph unicode="x" horiz-adv-x="1058" d="M6 0l379 500l-369 497h263l249 -335l248 335h260l-364 -495l379 -502h-267l-256 338l-256 -338h-266z" />
<glyph unicode="y" horiz-adv-x="1067" d="M33 997h264l248 -751l250 751h241l-323 -858l-54 -139l-143 -379h-242l138 373z" />
<glyph unicode="z" horiz-adv-x="899" d="M61 0v145l504 666h-489v186h755v-145l-493 -666h496v-186h-773z" />
<glyph unicode="{" horiz-adv-x="573" d="M82 571v168q79 0 100 27t21 131v272q0 176 74.5 243t240.5 67v-195q-64 0 -84 -27t-20 -122v-256q0 -158 -90 -224q90 -66 90 -223v-262q0 -96 20.5 -123t83.5 -27v-194q-83 0 -139 14t-97 49t-60 95t-19 151v279q0 103 -21 130t-100 27z" />
<glyph unicode="|" horiz-adv-x="667" d="M213 -403v1777l231 31v-1808h-231z" />
<glyph unicode="}" horiz-adv-x="561" d="M61 20q64 0 84.5 27.5t20.5 122.5v256q0 157 90 223q-90 66 -90 223v263q0 95 -20.5 122t-84.5 27v195q166 0 241 -67t75 -243v-278q0 -104 21 -131t100 -27v-168q-79 0 -100 -27t-21 -130v-273q0 -91 -19 -151.5t-60.5 -95t-97.5 -48.5t-139 -14v194z" />
<glyph unicode="~" horiz-adv-x="921" d="M78 473q0 143 57.5 225t163.5 82q47 0 91.5 -22.5t73 -49t64 -49t66.5 -22.5q46 0 70 34t24 97h158q0 -143 -58 -224t-163 -81q-47 0 -92 22.5t-73.5 49t-63.5 49t-66 22.5q-46 0 -71.5 -35t-25.5 -98h-155z" />
<glyph unicode="&#xa1;" horiz-adv-x="540" d="M117 940q0 64 39 105.5t106 41.5t106.5 -42t39.5 -105q0 -61 -39.5 -102t-106.5 -41t-106 41t-39 102zM152 -240l16 856h197l18 -856h-231z" />
<glyph unicode="&#xa2;" horiz-adv-x="1075" d="M68 522q0 205 103.5 341.5t283.5 170.5v172h196v-168q135 -24 232.5 -107.5t124.5 -205.5l-209 -78q-19 92 -86 143.5t-148 51.5q-126 0 -195 -86t-69 -234q0 -150 70 -235.5t194 -85.5q82 0 148.5 51t85.5 145l209 -80q-27 -122 -124.5 -205.5t-232.5 -107.5v-151h-196 v155q-178 34 -282.5 171.5t-104.5 342.5z" />
<glyph unicode="&#xa3;" horiz-adv-x="1024" d="M80 0v186h174v269h-166v188h166v16q0 547 475 547q94 0 162 -14l10 -213q-88 20 -168 20q-132 0 -189 -79.5t-57 -266.5v-10h277v-188h-277v-269h471v-186h-878z" />
<glyph unicode="&#xa4;" horiz-adv-x="1007" d="M68 287l96 96q-78 105 -78 240q0 131 70 229l-88 88l110 111l94 -95q99 58 234 58q128 0 231 -58l92 95l111 -111l-88 -90q68 -96 68 -227q0 -140 -76 -238l96 -96l-111 -111l-104 103q-99 -52 -219 -52q-127 0 -221 54l-107 -107zM305 623q0 -94 53.5 -147.5 t145.5 -53.5t144 53.5t52 147.5q0 93 -52 146.5t-144 53.5t-145.5 -54t-53.5 -146z" />
<glyph unicode="&#xa5;" horiz-adv-x="1177" d="M16 1309h281l199 -351l102 -192l100 192l201 351h262l-323 -564h168v-165h-265l-28 -50v-57h293v-168h-293v-305h-246v305h-322v168h322v55l-29 52h-293v165h197z" />
<glyph unicode="&#xa6;" horiz-adv-x="667" d="M213 -330v903h231v-903h-231zM213 805v569l231 31v-600h-231z" />
<glyph unicode="&#xa7;" horiz-adv-x="1040" d="M57 440q0 164 150 240q-64 77 -64 184q0 150 112.5 240t295.5 90q130 0 242 -53v-217q-119 77 -250 77q-81 0 -125.5 -32.5t-44.5 -83.5q0 -17 4 -32t15 -27.5t20 -22t30.5 -19.5t33 -15.5t42 -15t43.5 -13t49 -13.5q65 -17 114 -34.5t99 -46t82 -63t52 -84t20 -110.5 q0 -163 -150 -244q62 -75 62 -180q0 -158 -119.5 -253t-310.5 -95q-149 0 -266 57v207q135 -71 270 -71q92 0 144 34.5t52 96.5q0 63 -54.5 100t-174.5 68q-67 16 -116 33t-100.5 44t-83.5 60.5t-52.5 83t-20.5 110.5zM285 461q0 -43 35.5 -74t72 -44t121.5 -37q7 -2 10 -3 q63 -16 138 -41q83 30 83 103q0 63 -54 100t-175 70q-74 18 -135 38q-96 -37 -96 -112z" />
<glyph unicode="&#xa8;" horiz-adv-x="829" d="M162 1622q0 53 36 88t91 35t91 -35t36 -88q0 -54 -36 -89.5t-91 -35.5t-91 35.5t-36 89.5zM555 1622q0 53 35.5 88t89.5 35q56 0 91.5 -35t35.5 -88q0 -54 -35.5 -89.5t-91.5 -35.5q-54 0 -89.5 35.5t-35.5 89.5z" />
<glyph unicode="&#xa9;" horiz-adv-x="1693" d="M113 672q0 206 97 371.5t263 256.5t367 91q150 0 283.5 -54t230.5 -147.5t154 -228.5t57 -289t-57 -288.5t-154 -229t-231 -149t-283 -54.5q-150 0 -284.5 54.5t-231.5 149t-154 229t-57 288.5zM246 670q0 -268 167 -437.5t425 -169.5q169 0 304 76.5t212.5 215.5 t77.5 315q0 272 -167 440t-425 168q-259 0 -426.5 -168.5t-167.5 -439.5zM461 670q0 183 103.5 293t279.5 110q127 0 222.5 -68t121.5 -180l-162 -59q-14 70 -66 109.5t-116 39.5q-97 0 -150 -65.5t-53 -179.5q0 -117 54 -183.5t149 -66.5q64 0 116 39.5t66 111.5l162 -61 q-26 -112 -121.5 -180t-222.5 -68q-172 0 -277.5 112t-105.5 296z" />
<glyph unicode="&#xaa;" horiz-adv-x="796" d="M59 831q0 90 71 144t204 69l155 19q-10 125 -114 125q-101 0 -125 -96l-160 51q30 94 109 143t190 49q58 0 107.5 -13.5t91.5 -43t66 -83.5t24 -128v-289h82v-129h-215l-8 88h-9q-31 -44 -91.5 -72t-139.5 -28q-108 0 -173 52.5t-65 141.5zM246 848q0 -34 23 -55t67 -21 q60 0 108 37.5t48 97.5v39l-105 -8q-76 -8 -108.5 -27t-32.5 -63z" />
<glyph unicode="&#xab;" horiz-adv-x="966" d="M61 643l215 354h224l-211 -350l211 -350h-228zM449 643l215 354h223l-211 -350l211 -350h-228z" />
<glyph unicode="&#xac;" horiz-adv-x="1116" d="M131 580v176h854v-391h-246v215h-608z" />
<glyph unicode="&#xad;" horiz-adv-x="667" d="M57 543v215h568v-215h-568z" />
<glyph unicode="&#xae;" horiz-adv-x="919" d="M55 981q0 175 118 291.5t286 116.5t285.5 -116.5t117.5 -291.5t-117.5 -291.5t-285.5 -116.5t-286 116.5t-118 291.5zM127 981q0 -148 96 -245t236 -97q139 0 236.5 97.5t97.5 244.5q0 146 -97.5 243t-236.5 97t-235.5 -97t-96.5 -243zM309 778v430h166q71 0 113.5 -38 t42.5 -107q0 -92 -90 -125l92 -160h-115l-80 150h-28v-150h-101zM410 1012h61q26 0 41.5 14t15.5 39q0 55 -57 55h-61v-108z" />
<glyph unicode="&#xaf;" horiz-adv-x="718" d="M160 1522v172h553v-172h-553z" />
<glyph unicode="&#xb0;" horiz-adv-x="815" d="M100 1214q0 121 91 207t219 86q126 0 216.5 -86t90.5 -207t-89.5 -206.5t-217.5 -85.5t-219 85.5t-91 206.5zM283 1214q0 -50 36.5 -85t90.5 -35q52 0 88.5 35t36.5 85q0 51 -36 86t-89 35q-54 0 -90.5 -35t-36.5 -86z" />
<glyph unicode="&#xb1;" horiz-adv-x="1193" d="M152 178v164h895v-164h-895zM152 737v162h364v281h164v-281h367v-162h-367v-280h-164v280h-364z" />
<glyph unicode="&#xb2;" horiz-adv-x="792" d="M57 725l2 39q2 64 39 117.5t90 87.5t114.5 69.5t114 65.5t87.5 75.5t35 98.5q0 65 -41.5 102t-110.5 37q-143 0 -160 -164l-149 29q12 127 97 203t220 76q141 0 227.5 -79.5t86.5 -203.5q0 -66 -27 -121.5t-68 -90.5t-92.5 -66t-97 -50.5t-84.5 -42t-53 -41.5l262 8h186 v-149h-678z" />
<glyph unicode="&#xb3;" horiz-adv-x="794" d="M49 924l160 51q38 -119 180 -119q72 0 121 30.5t49 82.5q0 59 -53.5 85.5t-177.5 26.5v123q200 0 200 113q0 45 -40.5 72.5t-102.5 27.5q-60 0 -100.5 -27.5t-51.5 -72.5l-151 43q24 91 105.5 146t205.5 55q134 0 219.5 -63t85.5 -169q0 -117 -123 -178q156 -50 156 -186 q0 -119 -99.5 -187.5t-246.5 -68.5q-131 0 -221.5 56.5t-114.5 158.5z" />
<glyph unicode="&#xb4;" horiz-adv-x="718" d="M207 1501l250 273l186 -74l-305 -262z" />
<glyph unicode="&#xb6;" horiz-adv-x="1220" d="M229 1016q0 125 90.5 210t241.5 85v-588q-151 0 -241.5 84.5t-90.5 208.5zM389 -156q63 -18 127 -18q86 0 131 52t45 153v205h-2v1075h490v-217h-258v-1088q0 -87 -22.5 -155.5t-59 -111t-87.5 -70.5t-102 -39t-108 -11q-88 0 -154 16v209z" />
<glyph unicode="&#xb7;" horiz-adv-x="462" d="M86 639q0 62 41 104.5t109 42.5t108.5 -42.5t40.5 -104.5q0 -65 -40.5 -108.5t-108.5 -43.5q-69 0 -109.5 43.5t-40.5 108.5z" />
<glyph unicode="&#xb8;" horiz-adv-x="686" d="M-49 -315l258 364l158 -31l-220 -446z" />
<glyph unicode="&#xb9;" horiz-adv-x="559" d="M68 1395v149h346v-819h-172v670h-174z" />
<glyph unicode="&#xba;" horiz-adv-x="827" d="M59 985q0 162 98.5 256t256.5 94q157 0 255.5 -94.5t98.5 -255.5q0 -160 -99 -255t-255 -95q-158 0 -256.5 95t-98.5 255zM250 985q0 -88 43.5 -139t120.5 -51q79 0 121.5 50.5t42.5 139.5t-42.5 140t-121.5 51q-77 0 -120.5 -51t-43.5 -140z" />
<glyph unicode="&#xbb;" horiz-adv-x="966" d="M80 305l211 350l-211 351h227l211 -347l-215 -354h-223zM467 305l211 350l-211 351h227l211 -347l-215 -354h-223z" />
<glyph unicode="&#xbc;" horiz-adv-x="1605" d="M68 1190v149h346v-819h-172v670h-174zM199 0l921 1339h211l-923 -1339h-209zM838 250l276 569h186l-245 -508h217v213h170v-213h104v-147h-104v-164h-170v164h-410z" />
<glyph unicode="&#xbd;" horiz-adv-x="1734" d="M68 1190v149h346v-819h-172v670h-174zM209 0l921 1339h211l-923 -1339h-209zM999 0l2 39q2 64 39 117.5t90 87.5t114.5 69.5t114 65.5t87.5 75.5t35 98.5q0 65 -41.5 102t-110.5 37q-143 0 -160 -164l-149 29q12 127 97 203t220 76q141 0 227.5 -79.5t86.5 -203.5 q0 -66 -27 -121.5t-68 -90.5t-92.5 -66t-97 -50.5t-84.5 -42t-53 -41.5l262 9h186v-150h-678z" />
<glyph unicode="&#xbe;" horiz-adv-x="1851" d="M49 719l160 51q38 -119 180 -119q72 0 121 30.5t49 82.5q0 59 -54 86t-177 27v122q200 0 200 113q0 45 -40.5 72.5t-102.5 27.5q-60 0 -100.5 -27.5t-51.5 -72.5l-151 43q24 91 105.5 146t205.5 55q134 0 219.5 -63t85.5 -169q0 -116 -123 -178q156 -50 156 -186 q0 -119 -99.5 -187.5t-246.5 -68.5q-131 0 -221.5 56.5t-114.5 158.5zM406 0l921 1339h211l-924 -1339h-208zM1083 250l277 569h186l-246 -508h218v213h170v-213h104v-147h-104v-164h-170v164h-410z" />
<glyph unicode="&#xbf;" horiz-adv-x="989" d="M78 121q0 166 93 264.5t245 126.5v127h207v-291h-60q-270 -3 -270 -227q0 -101 61.5 -156t161.5 -55q190 0 232 215l190 -51q-20 -159 -137 -256t-291 -97q-187 0 -309.5 108.5t-122.5 291.5zM375 926q0 64 39 105.5t106 41.5t106.5 -42t39.5 -105q0 -61 -39.5 -102.5 t-106.5 -41.5t-106 41.5t-39 102.5z" />
<glyph unicode="&#xc0;" horiz-adv-x="1325" d="M31 0l495 1311h279l489 -1311h-282l-94 274h-527l-94 -274h-266zM381 1657l186 74l250 -273l-131 -63zM455 461h399l-199 583z" />
<glyph unicode="&#xc1;" horiz-adv-x="1325" d="M31 0l495 1311h279l489 -1311h-282l-94 274h-527l-94 -274h-266zM455 461h399l-199 583zM516 1458l250 273l186 -74l-305 -262z" />
<glyph unicode="&#xc2;" horiz-adv-x="1325" d="M31 0l495 1311h279l489 -1311h-282l-94 274h-527l-94 -274h-266zM352 1448l211 244h197l203 -244l-154 -41l-147 158l-164 -158zM455 461h399l-199 583z" />
<glyph unicode="&#xc3;" horiz-adv-x="1325" d="M31 0l495 1311h279l489 -1311h-282l-94 274h-527l-94 -274h-266zM324 1438q17 115 67.5 180t126.5 65q37 0 74 -17t62.5 -37t57.5 -37t60 -17q38 0 66.5 27t42.5 75l114 -32q-19 -116 -69 -179t-127 -63q-37 0 -74.5 16.5t-63 35.5t-57 35.5t-59.5 16.5q-80 0 -109 -100z M455 461h399l-199 583z" />
<glyph unicode="&#xc4;" horiz-adv-x="1325" d="M31 0l495 1311h279l489 -1311h-282l-94 274h-527l-94 -274h-266zM348 1567q0 51 34.5 85t88.5 34q55 0 90 -34t35 -85q0 -53 -35 -88t-90 -35q-54 0 -88.5 35t-34.5 88zM455 461h399l-199 583zM731 1567q0 51 35 85t88 34q55 0 90 -34t35 -85q0 -53 -35 -88t-90 -35 q-52 0 -87.5 35t-35.5 88z" />
<glyph unicode="&#xc5;" horiz-adv-x="1325" d="M31 0l495 1311h279l489 -1311h-282l-94 274h-527l-94 -274h-266zM455 461h399l-199 583zM487 1567q0 69 49.5 116.5t129.5 47.5q78 0 128 -47.5t50 -116.5q0 -70 -50 -118t-128 -48q-80 0 -129.5 47.5t-49.5 118.5zM606 1567q0 -21 16.5 -37.5t41.5 -16.5q30 0 46.5 15.5 t16.5 38.5q0 20 -17 35.5t-46 15.5q-25 0 -41.5 -15.5t-16.5 -35.5z" />
<glyph unicode="&#xc6;" horiz-adv-x="1841" d="M31 0l727 1311h993v-215h-659v-334h581v-215h-581v-332h659v-215h-905v274h-416l-149 -274h-250zM524 449h322v598l-135 -254z" />
<glyph unicode="&#xc7;" horiz-adv-x="1353" d="M86 657q0 156 48.5 285t132 213.5t195 131t238.5 46.5q223 0 371 -111t195 -298l-226 -90q-28 132 -116.5 205t-223.5 73q-167 0 -265.5 -119.5t-98.5 -337.5q0 -215 99 -336.5t265 -121.5q134 0 223 73.5t117 204.5l226 -88q-42 -167 -164.5 -274.5t-308.5 -130.5 l-199 -410l-197 113l211 297q-111 15 -206 68t-165.5 137t-110.5 205t-40 265z" />
<glyph unicode="&#xc8;" d="M152 0v1311h905v-215h-660v-334h582v-215h-582v-332h660v-215h-905zM342 1655l186 74l250 -273l-131 -63z" />
<glyph unicode="&#xc9;" d="M152 0v1311h905v-215h-660v-334h582v-215h-582v-332h660v-215h-905zM477 1456l250 273l186 -74l-305 -262z" />
<glyph unicode="&#xca;" d="M152 0v1311h905v-215h-660v-334h582v-215h-582v-332h660v-215h-905zM313 1446l211 244h197l203 -244l-154 -41l-147 158l-164 -158z" />
<glyph unicode="&#xcb;" d="M152 0v1311h905v-215h-660v-334h582v-215h-582v-332h660v-215h-905zM309 1565q0 51 34.5 84.5t88.5 33.5q55 0 90 -33.5t35 -84.5q0 -53 -35 -88t-90 -35q-54 0 -88.5 35t-34.5 88zM692 1565q0 51 35 84.5t88 33.5q55 0 90 -33.5t35 -84.5q0 -53 -35 -88t-90 -35 q-53 0 -88 35t-35 88z" />
<glyph unicode="&#xcc;" horiz-adv-x="550" d="M-6 1655l186 74l250 -273l-131 -63zM152 0v1309h245v-1309h-245z" />
<glyph unicode="&#xcd;" horiz-adv-x="550" d="M129 1456l250 273l186 -74l-305 -262zM152 0v1309h245v-1309h-245z" />
<glyph unicode="&#xce;" horiz-adv-x="550" d="M-35 1446l211 244h197l202 -244l-153 -41l-148 158l-163 -158zM152 0v1309h245v-1309h-245z" />
<glyph unicode="&#xcf;" horiz-adv-x="550" d="M-39 1565q0 51 34.5 84.5t88.5 33.5q55 0 90 -33.5t35 -84.5q0 -53 -35 -88t-90 -35q-54 0 -88.5 35t-34.5 88zM152 0v1309h245v-1309h-245zM344 1565q0 51 35 84.5t88 33.5q55 0 90 -33.5t35 -84.5q0 -53 -35 -88t-90 -35q-53 0 -88 35t-35 88z" />
<glyph unicode="&#xd0;" horiz-adv-x="1366" d="M66 547v211h86v551h417q356 0 534.5 -170.5t178.5 -479.5q0 -313 -179 -486t-534 -173h-417v547h-86zM397 209h172q251 0 360 111t109 339q0 226 -107.5 334.5t-361.5 108.5h-172v-344h301v-211h-301v-338z" />
<glyph unicode="&#xd1;" horiz-adv-x="1392" d="M152 0v1311h239l613 -885l-9 285v600h246v-1311h-229l-621 891l6 -293v-598h-245zM369 1436q17 115 67.5 180t126.5 65q37 0 74 -17t62.5 -37t57.5 -37t60 -17q38 0 66.5 27t42.5 75l114 -33q-19 -116 -69 -178.5t-127 -62.5q-37 0 -74.5 16.5t-62.5 35.5t-57 35.5 t-60 16.5q-80 0 -109 -100z" />
<glyph unicode="&#xd2;" horiz-adv-x="1402" d="M86 657q0 156 48.5 285t132 213.5t195 131t238.5 46.5t239 -46.5t196 -131t133 -213.5t49 -285q0 -158 -49 -288t-133 -215.5t-196 -132t-239 -46.5t-238.5 46.5t-195 132t-132 215.5t-48.5 288zM336 657q0 -217 98.5 -338.5t265.5 -121.5q168 0 267.5 121.5t99.5 338.5 q0 216 -99 335.5t-268 119.5q-167 0 -265.5 -119.5t-98.5 -335.5zM420 1655l186 74l250 -273l-131 -63z" />
<glyph unicode="&#xd3;" horiz-adv-x="1402" d="M86 657q0 156 48.5 285t132 213.5t195 131t238.5 46.5t239 -46.5t196 -131t133 -213.5t49 -285q0 -158 -49 -288t-133 -215.5t-196 -132t-239 -46.5t-238.5 46.5t-195 132t-132 215.5t-48.5 288zM336 657q0 -217 98.5 -338.5t265.5 -121.5q168 0 267.5 121.5t99.5 338.5 q0 216 -99 335.5t-268 119.5q-167 0 -265.5 -119.5t-98.5 -335.5zM555 1456l250 273l186 -74l-305 -262z" />
<glyph unicode="&#xd4;" horiz-adv-x="1402" d="M86 657q0 156 48.5 285t132 213.5t195 131t238.5 46.5t239 -46.5t196 -131t133 -213.5t49 -285q0 -158 -49 -288t-133 -215.5t-196 -132t-239 -46.5t-238.5 46.5t-195 132t-132 215.5t-48.5 288zM336 657q0 -217 98.5 -338.5t265.5 -121.5q168 0 267.5 121.5t99.5 338.5 q0 216 -99 335.5t-268 119.5q-167 0 -265.5 -119.5t-98.5 -335.5zM391 1446l211 244h197l202 -244l-153 -41l-148 158l-163 -158z" />
<glyph unicode="&#xd5;" horiz-adv-x="1402" d="M86 657q0 156 48.5 285t132 213.5t195 131t238.5 46.5t239 -46.5t196 -131t133 -213.5t49 -285q0 -158 -49 -288t-133 -215.5t-196 -132t-239 -46.5t-238.5 46.5t-195 132t-132 215.5t-48.5 288zM336 657q0 -217 98.5 -338.5t265.5 -121.5q168 0 267.5 121.5t99.5 338.5 q0 216 -99 335.5t-268 119.5q-167 0 -265.5 -119.5t-98.5 -335.5zM362 1436q17 115 68 180t127 65q37 0 74 -17t62.5 -37t57.5 -37t60 -17q38 0 66.5 27t42.5 75l114 -33q-19 -116 -69 -178.5t-127 -62.5q-37 0 -74.5 16.5t-62.5 35.5t-57 35.5t-60 16.5q-80 0 -109 -100z " />
<glyph unicode="&#xd6;" horiz-adv-x="1402" d="M86 657q0 156 48.5 285t132 213.5t195 131t238.5 46.5t239 -46.5t196 -131t133 -213.5t49 -285q0 -158 -49 -288t-133 -215.5t-196 -132t-239 -46.5t-238.5 46.5t-195 132t-132 215.5t-48.5 288zM336 657q0 -217 98.5 -338.5t265.5 -121.5q168 0 267.5 121.5t99.5 338.5 q0 216 -99 335.5t-268 119.5q-167 0 -265.5 -119.5t-98.5 -335.5zM387 1565q0 51 34.5 84.5t88.5 33.5q55 0 90 -33.5t35 -84.5q0 -53 -35 -88t-90 -35q-54 0 -88.5 35t-34.5 88zM770 1565q0 51 35 84.5t88 33.5q55 0 90 -33.5t35 -84.5q0 -53 -35 -88t-90 -35q-53 0 -88 35 t-35 88z" />
<glyph unicode="&#xd7;" horiz-adv-x="1032" d="M123 395l270 269l-270 268l127 125l266 -271l268 271l125 -125l-268 -268l268 -269l-125 -123l-268 267l-266 -267z" />
<glyph unicode="&#xd8;" horiz-adv-x="1402" d="M86 657q0 156 48.5 285t132 213.5t195 131t238.5 46.5q201 0 355 -108l88 102l119 -100l-93 -111q148 -182 148 -459q0 -158 -49 -288t-133 -215.5t-196 -132t-239 -46.5q-225 0 -383 131l-94 -110l-119 100l107 127q-125 178 -125 434zM336 657q0 -137 41 -237l532 629 q-84 63 -209 63q-167 0 -265.5 -119.5t-98.5 -335.5zM467 285q94 -88 233 -88q168 0 267.5 121.5t99.5 338.5q0 163 -57 271z" />
<glyph unicode="&#xd9;" horiz-adv-x="1351" d="M141 539v770h246v-764q0 -189 66.5 -278t222.5 -89q155 0 222 89t67 278v764h245v-770q0 -282 -135 -430t-399 -148q-267 0 -401 148.5t-134 429.5zM393 1655l187 74l249 -273l-131 -63z" />
<glyph unicode="&#xda;" horiz-adv-x="1351" d="M141 539v770h246v-764q0 -189 66.5 -278t222.5 -89q155 0 222 89t67 278v764h245v-770q0 -282 -135 -430t-399 -148q-267 0 -401 148.5t-134 429.5zM528 1456l250 273l187 -74l-306 -262z" />
<glyph unicode="&#xdb;" horiz-adv-x="1351" d="M141 539v770h246v-764q0 -189 66.5 -278t222.5 -89q155 0 222 89t67 278v764h245v-770q0 -282 -135 -430t-399 -148q-267 0 -401 148.5t-134 429.5zM365 1446l210 244h197l203 -244l-154 -41l-147 158l-164 -158z" />
<glyph unicode="&#xdc;" horiz-adv-x="1351" d="M141 539v770h246v-764q0 -189 66.5 -278t222.5 -89q155 0 222 89t67 278v764h245v-770q0 -282 -135 -430t-399 -148q-267 0 -401 148.5t-134 429.5zM360 1565q0 51 34.5 84.5t88.5 33.5q55 0 90 -33.5t35 -84.5q0 -53 -35 -88t-90 -35q-54 0 -88.5 35t-34.5 88zM743 1565 q0 51 35 84.5t88 33.5q55 0 90 -33.5t35 -84.5q0 -53 -35 -88t-90 -35q-52 0 -87.5 35t-35.5 88z" />
<glyph unicode="&#xdd;" horiz-adv-x="1177" d="M16 1309h281l199 -351l102 -192l100 192l201 351h262l-448 -779v-530h-246v528zM440 1456l250 273l187 -74l-306 -262z" />
<glyph unicode="&#xde;" horiz-adv-x="1210" d="M152 0v1309h245v-191h252q246 0 375 -113t129 -319t-129 -318t-377 -112h-250v-256h-245zM397 471h250q256 0 256 215t-254 215h-252v-430z" />
<glyph unicode="&#xdf;" horiz-adv-x="1206" d="M125 0v971q0 90 24.5 163.5t66.5 123.5t100.5 84t126 49.5t143.5 15.5q201 0 327.5 -100t126.5 -273q0 -184 -163 -286q262 -93 262 -347q0 -138 -65 -235.5t-170 -143t-238 -45.5q-125 0 -209 35l32 193q61 -31 170 -31q114 0 180 56.5t66 175.5q0 225 -330 225v188 q42 0 80.5 10t74 32t56.5 62.5t21 94.5q0 84 -57 133.5t-164 48.5q-117 0 -173.5 -57t-56.5 -174v-969h-231z" />
<glyph unicode="&#xe0;" horiz-adv-x="1069" d="M66 270q0 134 94.5 208.5t281.5 99.5l246 30q-5 111 -47 168.5t-135 57.5q-156 0 -203 -154l-194 70q43 130 150 201t261 71q83 0 151.5 -19.5t126 -62.5t90 -121.5t32.5 -187.5v-469h116v-162h-286l-13 139h-10q-42 -70 -129 -114.5t-199 -44.5q-151 0 -242 77t-91 213z M236 1354l186 73l250 -272l-131 -63zM297 283q0 -58 38.5 -92.5t106.5 -34.5q96 0 172 62.5t76 168.5v68l-182 -21q-113 -14 -162 -47.5t-49 -103.5z" />
<glyph unicode="&#xe1;" horiz-adv-x="1069" d="M66 270q0 134 94.5 208.5t281.5 99.5l246 30q-5 111 -47 168.5t-135 57.5q-156 0 -203 -154l-194 70q43 130 150 201t261 71q83 0 151.5 -19.5t126 -62.5t90 -121.5t32.5 -187.5v-469h116v-162h-286l-13 139h-10q-42 -70 -129 -114.5t-199 -44.5q-151 0 -242 77t-91 213z M297 283q0 -58 38.5 -92.5t106.5 -34.5q96 0 172 62.5t76 168.5v68l-182 -21q-113 -14 -162 -47.5t-49 -103.5zM371 1155l250 272l186 -73l-305 -262z" />
<glyph unicode="&#xe2;" horiz-adv-x="1069" d="M66 270q0 134 94.5 208.5t281.5 99.5l246 30q-5 111 -47 168.5t-135 57.5q-156 0 -203 -154l-194 70q43 130 150 201t261 71q83 0 151.5 -19.5t126 -62.5t90 -121.5t32.5 -187.5v-469h116v-162h-286l-13 139h-10q-42 -70 -129 -114.5t-199 -44.5q-151 0 -242 77t-91 213z M207 1145l211 244h196l203 -244l-153 -41l-148 158l-164 -158zM297 283q0 -58 38.5 -92.5t106.5 -34.5q96 0 172 62.5t76 168.5v68l-182 -21q-113 -14 -162 -47.5t-49 -103.5z" />
<glyph unicode="&#xe3;" horiz-adv-x="1069" d="M66 270q0 134 94.5 208.5t281.5 99.5l246 30q-5 111 -47 168.5t-135 57.5q-156 0 -203 -154l-194 70q43 130 150 201t261 71q83 0 151.5 -19.5t126 -62.5t90 -121.5t32.5 -187.5v-469h116v-162h-286l-13 139h-10q-42 -70 -129 -114.5t-199 -44.5q-151 0 -242 77t-91 213z M178 1135q17 115 68 180t127 65q37 0 74 -17t62.5 -37t57.5 -37t60 -17q38 0 66 27t42 75l115 -33q-19 -115 -69.5 -178t-127.5 -63q-37 0 -74.5 16t-63 36t-57 36t-59.5 16q-79 0 -108 -100zM297 283q0 -58 38.5 -92.5t106.5 -34.5q96 0 172 62.5t76 168.5v68l-182 -21 q-113 -14 -162 -47.5t-49 -103.5z" />
<glyph unicode="&#xe4;" horiz-adv-x="1069" d="M66 270q0 134 94.5 208.5t281.5 99.5l246 30q-5 111 -47 168.5t-135 57.5q-156 0 -203 -154l-194 70q43 130 150 201t261 71q83 0 151.5 -19.5t126 -62.5t90 -121.5t32.5 -187.5v-469h116v-162h-286l-13 139h-10q-42 -70 -129 -114.5t-199 -44.5q-151 0 -242 77t-91 213z M203 1264q0 51 34.5 84.5t88.5 33.5q55 0 90 -33.5t35 -84.5q0 -53 -35 -88t-90 -35q-54 0 -88.5 35t-34.5 88zM297 283q0 -58 38.5 -92.5t106.5 -34.5q96 0 172 62.5t76 168.5v68l-182 -21q-113 -14 -162 -47.5t-49 -103.5zM586 1264q0 51 35 84.5t88 33.5q55 0 90 -33.5 t35 -84.5q0 -53 -35 -88t-90 -35q-53 0 -88 35.5t-35 87.5z" />
<glyph unicode="&#xe5;" horiz-adv-x="1069" d="M66 270q0 134 94.5 208.5t281.5 99.5l246 30q-5 111 -47 168.5t-135 57.5q-156 0 -203 -154l-194 70q43 130 150 201t261 71q83 0 151.5 -19.5t126 -62.5t90 -121.5t32.5 -187.5v-469h116v-162h-286l-13 139h-10q-42 -70 -129 -114.5t-199 -44.5q-151 0 -242 77t-91 213z M297 283q0 -58 38.5 -92.5t106.5 -34.5q96 0 172 62.5t76 168.5v68l-182 -21q-113 -14 -162 -47.5t-49 -103.5zM342 1264q0 69 49 116t129 47q78 0 128 -47t50 -116q0 -70 -50 -118t-128 -48q-80 0 -129 47.5t-49 118.5zM461 1264q0 -21 16 -37.5t41 -16.5q30 0 47 15.5 t17 38.5q0 20 -17.5 35.5t-46.5 15.5q-25 0 -41 -15.5t-16 -35.5z" />
<glyph unicode="&#xe6;" horiz-adv-x="1718" d="M66 264q0 263 376 314l250 32q-6 116 -48.5 171t-141.5 55q-160 0 -209 -160l-197 72q45 130 153.5 202t270.5 72q238 0 318 -180h10q117 182 358 182q208 0 328 -135.5t117 -356.5v-69h-703q9 -134 80.5 -208.5t179.5 -74.5q80 0 141.5 42t86.5 122l198 -88 q-40 -122 -156.5 -200.5t-267.5 -78.5q-133 0 -231.5 59t-153.5 165h-26q-127 -221 -404 -221q-147 0 -238 77.5t-91 206.5zM297 283q0 -56 37 -91.5t112 -35.5q87 0 166.5 62.5t79.5 160.5v76l-184 -21q-113 -14 -162 -47.5t-49 -103.5zM956 621h459q-9 96 -67.5 153 t-151.5 57q-90 0 -155 -55.5t-85 -154.5z" />
<glyph unicode="&#xe7;" horiz-adv-x="1075" d="M68 502q0 236 134.5 379t362.5 143q163 0 287 -88t156 -231l-209 -78q-19 92 -86 143t-148 51q-126 0 -195 -85.5t-69 -233.5q0 -150 70 -236t194 -86q81 0 148 51.5t86 145.5l209 -80q-27 -122 -124.5 -205.5t-232.5 -107.5l-192 -396l-197 113l203 285 q-182 31 -289.5 169.5t-107.5 346.5z" />
<glyph unicode="&#xe8;" horiz-adv-x="1071" d="M68 502q0 233 135.5 377.5t353.5 144.5q206 0 326.5 -139t117.5 -353v-69h-700q10 -135 80 -209t178 -74q79 0 141 41t91 125l186 -104q-43 -113 -156 -189t-260 -76q-218 0 -355.5 142.5t-137.5 382.5zM276 1354l187 73l250 -272l-131 -63zM307 621h461 q-9 97 -66.5 153.5t-154.5 56.5q-94 0 -157.5 -55.5t-82.5 -154.5z" />
<glyph unicode="&#xe9;" horiz-adv-x="1071" d="M68 502q0 233 135.5 377.5t353.5 144.5q206 0 326.5 -139t117.5 -353v-69h-700q10 -135 80 -209t178 -74q79 0 141 41t91 125l186 -104q-43 -113 -156 -189t-260 -76q-218 0 -355.5 142.5t-137.5 382.5zM307 621h461q-9 97 -66.5 153.5t-154.5 56.5q-94 0 -157.5 -55.5 t-82.5 -154.5zM412 1155l250 272l186 -73l-305 -262z" />
<glyph unicode="&#xea;" horiz-adv-x="1071" d="M68 502q0 233 135.5 377.5t353.5 144.5q206 0 326.5 -139t117.5 -353v-69h-700q10 -135 80 -209t178 -74q79 0 141 41t91 125l186 -104q-43 -113 -156 -189t-260 -76q-218 0 -355.5 142.5t-137.5 382.5zM248 1145l211 244h196l203 -244l-153 -41l-148 158l-164 -158z M307 621h461q-9 97 -66.5 153.5t-154.5 56.5q-94 0 -157.5 -55.5t-82.5 -154.5z" />
<glyph unicode="&#xeb;" horiz-adv-x="1071" d="M68 502q0 233 135.5 377.5t353.5 144.5q206 0 326.5 -139t117.5 -353v-69h-700q10 -135 80 -209t178 -74q79 0 141 41t91 125l186 -104q-43 -113 -156 -189t-260 -76q-218 0 -355.5 142.5t-137.5 382.5zM244 1264q0 51 34.5 84.5t88.5 33.5q55 0 90 -33.5t35 -84.5 q0 -53 -35 -88t-90 -35q-54 0 -88.5 35t-34.5 88zM307 621h461q-9 97 -66.5 153.5t-154.5 56.5q-94 0 -157.5 -55.5t-82.5 -154.5zM627 1264q0 51 35 84.5t88 33.5q55 0 89.5 -33.5t34.5 -84.5q0 -53 -34.5 -88t-89.5 -35q-52 0 -87.5 35.5t-35.5 87.5z" />
<glyph unicode="&#xec;" horiz-adv-x="481" d="M-43 1354l186 73l250 -272l-131 -63zM123 0v997h231v-997h-231z" />
<glyph unicode="&#xed;" horiz-adv-x="481" d="M92 1155l250 272l186 -73l-305 -262zM123 0v997h231v-997h-231z" />
<glyph unicode="&#xee;" horiz-adv-x="481" d="M-72 1145l211 244h197l203 -244l-154 -41l-147 158l-164 -158zM123 0v997h231v-997h-231z" />
<glyph unicode="&#xef;" horiz-adv-x="481" d="M-76 1264q0 51 34.5 84.5t88.5 33.5q55 0 90 -33.5t35 -84.5q0 -53 -35 -88t-90 -35q-54 0 -88.5 35t-34.5 88zM123 0v997h231v-997h-231zM307 1264q0 51 35 84.5t88 33.5q55 0 90 -33.5t35 -84.5q0 -53 -35 -88t-90 -35q-52 0 -87.5 35.5t-35.5 87.5z" />
<glyph unicode="&#xf0;" horiz-adv-x="1124" d="M68 481q0 225 130 361.5t324 136.5q115 0 213 -55q-61 114 -184 221l-152 -90l-63 84l129 75q-80 58 -139 95l204 125q68 -50 129 -105l162 96l64 -84l-146 -86q318 -325 318 -729v-14q0 -250 -136.5 -392.5t-359.5 -142.5q-219 0 -356 138t-137 366zM301 481 q0 -141 69 -221t191 -80q124 0 193 80t69 221t-69 220t-193 79q-122 0 -191 -79t-69 -220z" />
<glyph unicode="&#xf1;" d="M129 0v997h213l8 -125h19q42 67 120 109.5t177 42.5q73 0 134.5 -19.5t112 -60.5t79 -114t28.5 -171v-659h-232v578q0 127 -45 182t-139 55q-114 0 -186 -84q-58 -67 -58 -227v-504h-231zM223 1157q17 115 68 180.5t127 65.5q37 0 74 -17t62.5 -37.5t57.5 -37.5t60 -17 q38 0 66 27.5t42 75.5l115 -33q-19 -116 -69.5 -179t-127.5 -63q-37 0 -74.5 16.5t-62.5 36t-57 36t-60 16.5q-79 0 -108 -101z" />
<glyph unicode="&#xf2;" horiz-adv-x="1124" d="M68 502q0 239 137 380.5t356 141.5q222 0 359 -141.5t137 -380.5q0 -238 -137.5 -381.5t-358.5 -143.5q-219 0 -356 144t-137 381zM279 1354l186 73l250 -272l-131 -63zM301 502q0 -151 69.5 -237.5t190.5 -86.5q124 0 193 86t69 238t-69 236.5t-193 84.5 q-122 0 -191 -84.5t-69 -236.5z" />
<glyph unicode="&#xf3;" horiz-adv-x="1124" d="M68 502q0 239 137 380.5t356 141.5q222 0 359 -141.5t137 -380.5q0 -238 -137.5 -381.5t-358.5 -143.5q-219 0 -356 144t-137 381zM301 502q0 -151 69.5 -237.5t190.5 -86.5q124 0 193 86t69 238t-69 236.5t-193 84.5q-122 0 -191 -84.5t-69 -236.5zM414 1155l250 272 l186 -73l-305 -262z" />
<glyph unicode="&#xf4;" horiz-adv-x="1124" d="M68 502q0 239 137 380.5t356 141.5q222 0 359 -141.5t137 -380.5q0 -238 -137.5 -381.5t-358.5 -143.5q-219 0 -356 144t-137 381zM250 1145l211 244h196l203 -244l-153 -41l-148 158l-164 -158zM301 502q0 -151 69.5 -237.5t190.5 -86.5q124 0 193 86t69 238t-69 236.5 t-193 84.5q-122 0 -191 -84.5t-69 -236.5z" />
<glyph unicode="&#xf5;" horiz-adv-x="1124" d="M68 502q0 239 137 380.5t356 141.5q222 0 359 -141.5t137 -380.5q0 -238 -137.5 -381.5t-358.5 -143.5q-219 0 -356 144t-137 381zM221 1135q17 115 68 180t127 65q37 0 74 -17t62.5 -37t57.5 -37t60 -17q38 0 66 27t42 75l115 -33q-19 -115 -69.5 -178t-127.5 -63 q-37 0 -74.5 16t-62.5 36t-57 36t-60 16q-79 0 -108 -100zM301 502q0 -151 69.5 -237.5t190.5 -86.5q124 0 193 86t69 238t-69 236.5t-193 84.5q-122 0 -191 -84.5t-69 -236.5z" />
<glyph unicode="&#xf6;" horiz-adv-x="1124" d="M68 502q0 239 137 380.5t356 141.5q222 0 359 -141.5t137 -380.5q0 -238 -137.5 -381.5t-358.5 -143.5q-219 0 -356 144t-137 381zM246 1264q0 51 34.5 84.5t88.5 33.5q55 0 90 -33.5t35 -84.5q0 -53 -35 -88t-90 -35q-54 0 -88.5 35t-34.5 88zM301 502 q0 -151 69.5 -237.5t190.5 -86.5q124 0 193 86t69 238t-69 236.5t-193 84.5q-122 0 -191 -84.5t-69 -236.5zM629 1264q0 51 35 84.5t88 33.5q55 0 90 -33.5t35 -84.5q0 -53 -35 -88t-90 -35q-52 0 -87.5 35.5t-35.5 87.5z" />
<glyph unicode="&#xf7;" horiz-adv-x="1181" d="M131 578v178h918v-178h-918zM463 297q0 54 37 91.5t90 37.5q55 0 93 -37.5t38 -91.5t-37.5 -90.5t-93.5 -36.5q-53 0 -90 36.5t-37 90.5zM463 1038q0 54 37 90.5t90 36.5q56 0 93.5 -36.5t37.5 -90.5t-37.5 -90.5t-93.5 -36.5q-53 0 -90 36.5t-37 90.5z" />
<glyph unicode="&#xf8;" horiz-adv-x="1228" d="M68 502q0 239 137 380.5t356 141.5q146 0 266 -68l58 68l119 -100l-60 -70q113 -138 113 -352q0 -238 -137.5 -381.5t-358.5 -143.5q-161 0 -285 82l-53 -63l-119 100l62 72q-98 137 -98 334zM301 502q0 -74 21 -146l368 437q-56 30 -129 30q-122 0 -191 -84.5 t-69 -236.5zM414 223q64 -45 147 -45q124 0 193 86t69 238q0 102 -30 172z" />
<glyph unicode="&#xf9;" d="M129 338v659h231v-577q0 -127 45.5 -182.5t139.5 -55.5q114 0 186 84q57 66 57 228v503h232v-997h-213l-8 125h-19q-42 -67 -120 -109.5t-177 -42.5q-73 0 -134.5 19.5t-112 60.5t-79 114t-28.5 171zM299 1354l186 73l250 -272l-131 -63z" />
<glyph unicode="&#xfa;" d="M129 338v659h231v-577q0 -127 45.5 -182.5t139.5 -55.5q114 0 186 84q57 66 57 228v503h232v-997h-213l-8 125h-19q-42 -67 -120 -109.5t-177 -42.5q-73 0 -134.5 19.5t-112 60.5t-79 114t-28.5 171zM434 1155l250 272l186 -73l-305 -262z" />
<glyph unicode="&#xfb;" d="M129 338v659h231v-577q0 -127 45.5 -182.5t139.5 -55.5q114 0 186 84q57 66 57 228v503h232v-997h-213l-8 125h-19q-42 -67 -120 -109.5t-177 -42.5q-73 0 -134.5 19.5t-112 60.5t-79 114t-28.5 171zM270 1145l211 244h197l203 -244l-154 -41l-147 158l-164 -158z" />
<glyph unicode="&#xfc;" d="M129 338v659h231v-577q0 -127 45.5 -182.5t139.5 -55.5q114 0 186 84q57 66 57 228v503h232v-997h-213l-8 125h-19q-42 -67 -120 -109.5t-177 -42.5q-73 0 -134.5 19.5t-112 60.5t-79 114t-28.5 171zM266 1264q0 51 34.5 84.5t88.5 33.5q55 0 90 -33.5t35 -84.5 q0 -53 -35 -88t-90 -35q-54 0 -88.5 35t-34.5 88zM649 1264q0 51 35 84.5t88 33.5q55 0 90 -33.5t35 -84.5q0 -53 -35 -88t-90 -35q-52 0 -87.5 35.5t-35.5 87.5z" />
<glyph unicode="&#xfd;" horiz-adv-x="1067" d="M33 997h264l248 -751l250 751h241l-323 -858l-54 -139l-143 -379h-242l138 373zM391 1155l250 272l186 -73l-305 -262z" />
<glyph unicode="&#xfe;" horiz-adv-x="1181" d="M125 -377v1751l231 31v-520h15q96 139 295 139q121 0 222 -61.5t163.5 -182t62.5 -278.5q0 -157 -62.5 -277.5t-164 -182.5t-223.5 -62q-200 0 -295 141h-13v-498h-231zM356 504q0 -158 73 -240t196 -82q117 0 185.5 83.5t68.5 236.5t-68 236t-184 83q-123 0 -197 -81 t-74 -236z" />
<glyph unicode="&#xff;" horiz-adv-x="1067" d="M33 997h264l248 -751l250 751h241l-323 -858l-54 -139l-143 -379h-242l138 373zM223 1264q0 51 34.5 84.5t88.5 33.5q55 0 90 -33.5t35 -84.5q0 -53 -35 -88t-90 -35q-54 0 -88.5 35t-34.5 88zM606 1264q0 51 35 84.5t88 33.5q55 0 90 -33.5t35 -84.5q0 -53 -35 -88 t-90 -35q-53 0 -88 35.5t-35 87.5z" />
<glyph unicode="&#x152;" horiz-adv-x="2095" d="M86 657q0 156 48.5 285t132 213.5t195 131t238.5 46.5q258 0 400 -164v142h905v-215h-659v-334h581v-215h-581v-332h659v-215h-905v141q-140 -166 -400 -166q-127 0 -238.5 46.5t-195 132t-132 215.5t-48.5 288zM336 657q0 -217 98.5 -338.5t265.5 -121.5 q162 0 264.5 122.5t102.5 337.5q0 214 -102 334.5t-265 120.5q-167 0 -265.5 -119.5t-98.5 -335.5z" />
<glyph unicode="&#x153;" horiz-adv-x="1843" d="M68 502q0 234 136.5 378t356.5 144q124 0 220 -54.5t157 -150.5h23q59 96 153.5 150.5t216.5 54.5q208 0 327 -135.5t116 -356.5v-69h-701q9 -134 80.5 -208.5t179.5 -74.5q81 0 146 43t90 125l196 -78q-34 -128 -154.5 -210.5t-275.5 -82.5q-245 0 -374 199h-25 q-60 -95 -155 -147t-220 -52q-220 0 -356.5 146t-136.5 379zM295 502q0 -149 72 -234.5t194 -85.5t193 85.5t71 234.5t-71 234t-193 85t-194 -85.5t-72 -233.5zM1081 621h457q-9 96 -66.5 153t-150.5 57q-91 0 -156.5 -56t-83.5 -154z" />
<glyph unicode="&#x178;" horiz-adv-x="1177" d="M16 1309h281l199 -351l102 -192l100 192l201 351h262l-448 -779v-530h-246v528zM272 1565q0 51 34.5 84.5t88.5 33.5q55 0 90 -33.5t35 -84.5q0 -53 -35 -88t-90 -35q-54 0 -88.5 35t-34.5 88zM655 1565q0 51 35 84.5t88 33.5q55 0 90 -33.5t35 -84.5q0 -53 -35 -88 t-90 -35q-52 0 -87.5 35t-35.5 88z" />
<glyph unicode="&#x2c6;" horiz-adv-x="886" d="M162 1464l223 265h217l225 -265h-180l-155 150l-144 -150h-186z" />
<glyph unicode="&#x2dc;" horiz-adv-x="796" d="M41 1485q17 115 68 180.5t127 65.5q37 0 74 -17t62 -37.5t57 -37.5t60 -17q38 0 66.5 27t42.5 75l115 -32q-19 -116 -69.5 -179t-127.5 -63q-37 0 -74.5 16t-62.5 36t-57 36t-60 16q-79 0 -108 -100z" />
<glyph unicode="&#x2000;" horiz-adv-x="887" />
<glyph unicode="&#x2001;" horiz-adv-x="1774" />
<glyph unicode="&#x2002;" horiz-adv-x="887" />
<glyph unicode="&#x2003;" horiz-adv-x="1774" />
<glyph unicode="&#x2004;" horiz-adv-x="591" />
<glyph unicode="&#x2005;" horiz-adv-x="443" />
<glyph unicode="&#x2006;" horiz-adv-x="295" />
<glyph unicode="&#x2007;" horiz-adv-x="295" />
<glyph unicode="&#x2008;" horiz-adv-x="221" />
<glyph unicode="&#x2009;" horiz-adv-x="354" />
<glyph unicode="&#x200a;" horiz-adv-x="98" />
<glyph unicode="&#x2010;" horiz-adv-x="681" d="M57 543v215h568v-215h-568z" />
<glyph unicode="&#x2011;" horiz-adv-x="681" d="M57 543v215h568v-215h-568z" />
<glyph unicode="&#x2012;" horiz-adv-x="681" d="M57 543v215h568v-215h-568z" />
<glyph unicode="&#x2013;" horiz-adv-x="821" d="M57 543v215h707v-215h-707z" />
<glyph unicode="&#x2014;" horiz-adv-x="1282" d="M57 543v215h1168v-215h-1168z" />
<glyph unicode="&#x2018;" horiz-adv-x="403" d="M57 958v3v2q5 174 185 374l82 -55q-96 -110 -134 -223h15q62 0 103.5 -38t41.5 -97q0 -63 -39 -103t-102 -39q-65 0 -108.5 45t-43.5 131z" />
<glyph unicode="&#x2019;" horiz-adv-x="403" d="M53 1194q0 63 39.5 102.5t102.5 38.5q65 0 108 -45t43 -131v-2v-2q-5 -177 -184 -375l-82 56q94 108 133 223h-14q-62 0 -104 38t-42 97z" />
<glyph unicode="&#x201a;" horiz-adv-x="475" d="M96 131q0 59 40 101t104 42t105.5 -45t41.5 -120v-3v-2q-1 -75 -32.5 -152.5t-66.5 -127t-93 -119.5l-86 57q93 121 135 226h-2q-63 0 -104.5 41.5t-41.5 101.5z" />
<glyph unicode="&#x201c;" horiz-adv-x="776" d="M57 967v2v2q5 175 185 375l82 -56q-96 -110 -134 -223h15q62 0 103.5 -38t41.5 -97q0 -63 -39 -102.5t-102 -38.5q-65 0 -108.5 45t-43.5 131zM430 967v2v2q5 177 184 375l82 -56q-94 -108 -133 -223h15q62 0 103.5 -38t41.5 -97q0 -63 -39 -102.5t-102 -38.5 q-65 0 -108.5 45t-43.5 131z" />
<glyph unicode="&#x201d;" horiz-adv-x="776" d="M53 1194q0 63 39.5 102.5t102.5 38.5q65 0 108 -45t43 -131v-2v-2q-5 -177 -184 -375l-82 56q94 108 133 223h-14q-62 0 -104 38t-42 97zM426 1194q0 63 39 102.5t102 38.5q65 0 108.5 -45t43.5 -131v-2v-2q-5 -177 -184 -375l-82 56q94 108 133 223h-15q-62 0 -103.5 38 t-41.5 97z" />
<glyph unicode="&#x201e;" horiz-adv-x="800" d="M59 131q0 59 40 101t104 42t105.5 -45t41.5 -120v-3v-2q-1 -75 -32.5 -152.5t-66.5 -127t-93 -119.5l-86 57q93 121 135 226h-2q-63 0 -104.5 41.5t-41.5 101.5zM453 131q0 59 39.5 101t103.5 42t105.5 -45t41.5 -120v-3v-2q-1 -75 -32.5 -152.5t-66.5 -127t-93 -119.5 l-86 57q93 121 135 226h-2q-63 0 -104 41.5t-41 101.5z" />
<glyph unicode="&#x2022;" horiz-adv-x="669" d="M57 651q0 114 81.5 194.5t201.5 80.5q113 0 192.5 -81t79.5 -194q0 -115 -79.5 -196.5t-192.5 -81.5q-120 0 -201.5 81.5t-81.5 196.5z" />
<glyph unicode="&#x2026;" horiz-adv-x="1472" d="M98 135q0 62 41 105t109 43t108.5 -43t40.5 -105q0 -65 -40 -108t-109 -43t-109.5 43t-40.5 108zM582 135q0 62 40.5 105t108.5 43t109 -43t41 -105q0 -65 -40.5 -108t-109.5 -43t-109 43t-40 108zM1065 135q0 62 40.5 105t108.5 43t109 -43t41 -105q0 -65 -40.5 -108 t-109.5 -43t-109 43t-40 108z" />
<glyph unicode="&#x202f;" horiz-adv-x="354" />
<glyph unicode="&#x2039;" horiz-adv-x="581" d="M61 643l215 354h224l-211 -350l211 -350h-228z" />
<glyph unicode="&#x203a;" horiz-adv-x="581" d="M82 297l211 350l-211 350h223l215 -354l-211 -346h-227z" />
<glyph unicode="&#x205f;" horiz-adv-x="443" />
<glyph unicode="&#x20ac;" horiz-adv-x="1288" d="M41 526h92q-2 20 -2 64q0 45 2 65h-88l-2 152h119q56 184 198.5 286.5t327.5 102.5q202 0 336 -100t176 -269l-219 -88q-23 116 -99.5 180t-193.5 64q-94 0 -165 -45t-109 -131h331l3 -152h-371q-4 -46 -4 -67q0 -42 2 -62h379l2 -149h-346q38 -91 109.5 -139t168.5 -48 q116 0 193 64.5t100 177.5l219 -84q-42 -169 -176 -270t-336 -101q-187 0 -330.5 105t-197.5 295h-117z" />
<glyph unicode="&#x2122;" horiz-adv-x="1734" d="M41 1143v168h616v-168h-217v-578h-182v578h-217zM754 565v746h200l217 -365l222 365h190v-746h-182v240l2 182l-193 -295h-82l-196 291l4 -178v-240h-182z" />
<glyph unicode="&#x25fc;" horiz-adv-x="993" d="M0 0v993h993v-993h-993z" />
</font>
</defs>
</svg>
